<?xml version="1.0" encoding="UTF-8"?>
<svg version="1.1" xmlns="http://www.w3.org/2000/svg" width="512" height="512">
<path d="M0 0 C7.30868847 4.00639096 13.2598854 10.09048651 19.21484375 15.8515625 C21.77885929 18.31343799 24.42359664 20.50307076 27.31640625 22.578125 C28.34765625 23.34125 29.37890625 24.104375 30.44140625 24.890625 C30.44140625 25.550625 30.44140625 26.210625 30.44140625 26.890625 C31.32505859 27.29861328 31.32505859 27.29861328 32.2265625 27.71484375 C34.39532572 28.8661625 36.0364704 30.09046175 37.87890625 31.703125 C38.43449219 32.18394531 38.99007813 32.66476563 39.5625 33.16015625 C41.01811227 34.50077213 42.4338781 35.88471854 43.83203125 37.28515625 C46.4093098 39.8585766 49.05777301 42.31736822 51.75390625 44.765625 C61.63750053 53.78149136 71.53328959 62.81409112 80.890625 72.37890625 C82.6150553 74.11172991 82.6150553 74.11172991 85.44140625 76.265625 C86.10140625 76.801875 86.76140625 77.338125 87.44140625 77.890625 C87.44140625 78.550625 87.44140625 79.210625 87.44140625 79.890625 C88.10140625 79.890625 88.76140625 79.890625 89.44140625 79.890625 C89.44140625 80.550625 89.44140625 81.210625 89.44140625 81.890625 C90.01820129 82.14275757 90.59499634 82.39489014 91.18927002 82.65466309 C93.72549375 84.0465309 95.42824119 85.62343396 97.47558594 87.66601562 C98.25609314 88.44021851 99.03660034 89.21442139 99.84075928 90.01208496 C100.67319153 90.84856567 101.50562378 91.68504639 102.36328125 92.546875 C103.65326019 93.83398376 103.65326019 93.83398376 104.96929932 95.14709473 C106.78391451 96.96034967 108.59600941 98.77612981 110.40576172 100.59423828 C113.18756246 103.38676638 115.9798877 106.16844958 118.7734375 108.94921875 C120.53319397 110.71029633 122.2923302 112.47199394 124.05078125 114.234375 C124.89131042 115.07085571 125.7318396 115.90733643 126.59783936 116.76916504 C127.74968719 117.93046936 127.74968719 117.93046936 128.92480469 119.11523438 C129.94595367 120.13877014 129.94595367 120.13877014 130.98773193 121.1829834 C132.44140625 122.890625 132.44140625 122.890625 132.44140625 124.890625 C133.10140625 124.890625 133.76140625 124.890625 134.44140625 124.890625 C136.06640625 126.265625 136.06640625 126.265625 137.44140625 127.890625 C137.44140625 128.550625 137.44140625 129.210625 137.44140625 129.890625 C138.10140625 129.890625 138.76140625 129.890625 139.44140625 129.890625 C140.8515625 131.32421875 140.8515625 131.32421875 142.50390625 133.328125 C145.19315619 136.49819717 147.97654002 139.47644025 150.94140625 142.390625 C154.44858164 145.85000242 157.73347003 149.42456821 160.93359375 153.16796875 C162.18240412 154.59471842 163.52087339 155.94241349 164.87890625 157.265625 C166.44140625 158.890625 166.44140625 158.890625 166.44140625 160.890625 C167.43140625 161.220625 168.42140625 161.550625 169.44140625 161.890625 C170.94921875 163.38671875 170.94921875 163.38671875 172.56640625 165.328125 C175.3097252 168.56338933 178.09371977 171.74650699 180.94140625 174.890625 C181.69292969 175.7259375 182.44445312 176.56125 183.21875 177.421875 C184.66581495 179.0291598 186.11617318 180.63348768 187.5703125 182.234375 C188.20839844 182.9459375 188.84648437 183.6575 189.50390625 184.390625 C190.35662109 185.33421875 190.35662109 185.33421875 191.2265625 186.296875 C192.44140625 187.890625 192.44140625 187.890625 192.44140625 189.890625 C193.43140625 190.220625 194.42140625 190.550625 195.44140625 190.890625 C195.44140625 191.550625 195.44140625 192.210625 195.44140625 192.890625 C196.10140625 192.890625 196.76140625 192.890625 197.44140625 192.890625 C198.95703125 194.61328125 198.95703125 194.61328125 200.69140625 196.953125 C203.38990936 200.53610616 206.17749181 203.95395281 209.1796875 207.28515625 C212.54225798 211.56384501 212.80661889 215.43151488 212.81640625 220.765625 C212.84089844 221.46042969 212.86539062 222.15523437 212.890625 222.87109375 C212.92010149 228.08843257 211.6226281 230.8397166 208.44140625 234.890625 C207.90257812 235.66148437 207.36375 236.43234375 206.80859375 237.2265625 C206.31617188 237.89945313 205.82375 238.57234375 205.31640625 239.265625 C204.81882812 239.95398438 204.32125 240.64234375 203.80859375 241.3515625 C203.35742188 241.85945312 202.90625 242.36734375 202.44140625 242.890625 C201.78140625 242.890625 201.12140625 242.890625 200.44140625 242.890625 C200.44140625 243.550625 200.44140625 244.210625 200.44140625 244.890625 C199.78140625 244.890625 199.12140625 244.890625 198.44140625 244.890625 C198.22226562 245.42816406 198.003125 245.96570313 197.77734375 246.51953125 C195.98334786 249.70361168 193.56518465 252.19454408 191.06640625 254.828125 C190.09871466 255.85662074 189.13254646 256.88655209 188.16796875 257.91796875 C187.70422852 258.41280762 187.24048828 258.90764648 186.76269531 259.41748047 C185.51300352 260.81079907 184.35988705 262.28901035 183.21484375 263.76953125 C182.62960937 264.46949219 182.044375 265.16945313 181.44140625 265.890625 C180.78140625 265.890625 180.12140625 265.890625 179.44140625 265.890625 C179.10109375 266.7259375 179.10109375 266.7259375 178.75390625 267.578125 C177.07710124 270.53249572 174.86816273 272.52164843 172.44140625 274.890625 C171.71953125 275.81875 170.99765625 276.746875 170.25390625 277.703125 C169.65578125 278.425 169.05765625 279.146875 168.44140625 279.890625 C167.78140625 279.890625 167.12140625 279.890625 166.44140625 279.890625 C166.44140625 280.550625 166.44140625 281.210625 166.44140625 281.890625 C165.78140625 281.890625 165.12140625 281.890625 164.44140625 281.890625 C164.17972656 282.47972656 163.91804688 283.06882812 163.6484375 283.67578125 C162.37717875 286.00847934 161.03910094 287.49416868 159.12890625 289.328125 C158.50242187 289.9365625 157.8759375 290.545 157.23046875 291.171875 C156.34488281 292.02265625 156.34488281 292.02265625 155.44140625 292.890625 C154.63703125 293.695 153.83265625 294.499375 153.00390625 295.328125 C151.54230596 296.78972529 150.07719317 298.24787859 148.6015625 299.6953125 C147.59416016 300.68917969 147.59416016 300.68917969 146.56640625 301.703125 C145.64214844 302.60998047 145.64214844 302.60998047 144.69921875 303.53515625 C142.80835253 305.50780735 141.02418392 307.51664642 139.2421875 309.5859375 C135.19300462 314.24314638 130.87726752 318.60190734 126.50390625 322.953125 C125.74400391 323.71689453 124.98410156 324.48066406 124.20117188 325.26757812 C120.70247516 328.76029927 117.17995758 332.16822907 113.4296875 335.390625 C108.06484589 340.0074103 103.20106359 345.11953595 98.26953125 350.18945312 C97.54507812 350.92486328 96.820625 351.66027344 96.07421875 352.41796875 C95.09799561 353.41944946 95.09799561 353.41944946 94.10205078 354.44116211 C92.44140625 355.890625 92.44140625 355.890625 90.44140625 355.890625 C90.44140625 356.550625 90.44140625 357.210625 90.44140625 357.890625 C88.9375 359.37109375 88.9375 359.37109375 86.87890625 361.078125 C84.11601945 363.42342258 81.47460868 365.79891905 78.94140625 368.390625 C75.84854885 371.54023207 72.5908506 374.44270063 69.23828125 377.3125 C67.42172492 378.85863694 67.42172492 378.85863694 65.83203125 380.59375 C64.44140625 381.890625 64.44140625 381.890625 62.44140625 381.890625 C62.11140625 382.880625 61.78140625 383.870625 61.44140625 384.890625 C55.97628997 389.890625 55.97628997 389.890625 53.44140625 389.890625 C53.11140625 390.880625 52.78140625 391.870625 52.44140625 392.890625 C50.9453125 394.3984375 50.9453125 394.3984375 49.00390625 396.015625 C45.76864192 398.75894395 42.58552426 401.54293852 39.44140625 404.390625 C38.60609375 405.14214844 37.77078125 405.89367187 36.91015625 406.66796875 C35.30287145 408.1150337 33.69854357 409.56539193 32.09765625 411.01953125 C31.38609375 411.65761719 30.67453125 412.29570312 29.94140625 412.953125 C29.31234375 413.52160156 28.68328125 414.09007812 28.03515625 414.67578125 C26.44140625 415.890625 26.44140625 415.890625 24.44140625 415.890625 C24.44140625 416.550625 24.44140625 417.210625 24.44140625 417.890625 C22.82757677 419.34722477 21.14777409 420.73111451 19.44140625 422.078125 C15.16564759 425.48769771 11.03041406 428.98053676 7 432.67578125 C5.44140625 433.890625 5.44140625 433.890625 3.44140625 433.890625 C3.11140625 434.880625 2.78140625 435.870625 2.44140625 436.890625 C1.45140625 436.890625 0.46140625 436.890625 -0.55859375 436.890625 C-0.55859375 437.550625 -0.55859375 438.210625 -0.55859375 438.890625 C-7.08081403 443.93543627 -13.79078597 444.43682056 -21.74609375 444.515625 C-22.69629395 444.53818359 -23.64649414 444.56074219 -24.62548828 444.58398438 C-31.18606146 444.51505872 -34.6878834 443.35039021 -39.55859375 438.890625 C-39.55859375 438.230625 -39.55859375 437.570625 -39.55859375 436.890625 C-40.17734375 436.58125 -40.79609375 436.271875 -41.43359375 435.953125 C-42.80859375 435.265625 -44.18359375 434.578125 -45.55859375 433.890625 C-45.55859375 433.230625 -45.55859375 432.570625 -45.55859375 431.890625 C-46.17734375 431.58125 -46.79609375 431.271875 -47.43359375 430.953125 C-48.80859375 430.265625 -50.18359375 429.578125 -51.55859375 428.890625 C-51.55859375 428.230625 -51.55859375 427.570625 -51.55859375 426.890625 C-52.17734375 426.58125 -52.79609375 426.271875 -53.43359375 425.953125 C-54.80859375 425.265625 -56.18359375 424.578125 -57.55859375 423.890625 C-57.55859375 423.230625 -57.55859375 422.570625 -57.55859375 421.890625 C-58.120625 421.6328125 -58.68265625 421.375 -59.26171875 421.109375 C-61.82563954 419.74892723 -64.0108574 418.16273538 -66.30859375 416.390625 C-67.1078125 415.7821875 -67.90703125 415.17375 -68.73046875 414.546875 C-69.33375 414.0003125 -69.93703125 413.45375 -70.55859375 412.890625 C-70.55859375 412.230625 -70.55859375 411.570625 -70.55859375 410.890625 C-71.17734375 410.58125 -71.79609375 410.271875 -72.43359375 409.953125 C-73.80859375 409.265625 -75.18359375 408.578125 -76.55859375 407.890625 C-76.55859375 407.230625 -76.55859375 406.570625 -76.55859375 405.890625 C-77.11804688 405.64054687 -77.6775 405.39046875 -78.25390625 405.1328125 C-80.93752661 403.68638661 -83.08646798 401.96324 -85.43359375 400.015625 C-86.87412109 398.82259766 -86.87412109 398.82259766 -88.34375 397.60546875 C-90.63811804 395.67808491 -92.91246827 393.72875996 -95.1796875 391.76953125 C-95.79279785 391.24020996 -96.4059082 390.71088867 -97.03759766 390.16552734 C-98.23176278 389.13164431 -99.42300383 388.09437109 -100.61083984 387.05322266 C-103.30422002 384.71552779 -105.9620807 382.5723605 -108.9765625 380.66015625 C-109.82863281 380.07621094 -110.68070313 379.49226563 -111.55859375 378.890625 C-111.55859375 378.230625 -111.55859375 377.570625 -111.55859375 376.890625 C-112.120625 376.6328125 -112.68265625 376.375 -113.26171875 376.109375 C-115.82563954 374.74892723 -118.0108574 373.16273538 -120.30859375 371.390625 C-121.1078125 370.7821875 -121.90703125 370.17375 -122.73046875 369.546875 C-123.33375 369.0003125 -123.93703125 368.45375 -124.55859375 367.890625 C-124.55859375 367.230625 -124.55859375 366.570625 -124.55859375 365.890625 C-125.1309375 365.6225 -125.70328125 365.354375 -126.29296875 365.078125 C-128.63744009 363.84929864 -130.68264313 362.46540324 -132.80859375 360.890625 C-133.515 360.375 -134.22140625 359.859375 -134.94921875 359.328125 C-135.74585938 358.6165625 -135.74585938 358.6165625 -136.55859375 357.890625 C-136.55859375 357.230625 -136.55859375 356.570625 -136.55859375 355.890625 C-137.11546875 355.643125 -137.67234375 355.395625 -138.24609375 355.140625 C-140.98054047 353.66254569 -143.17000187 351.88111824 -145.55859375 349.890625 C-147.01458984 348.6840625 -147.01458984 348.6840625 -148.5 347.453125 C-150.51044763 345.7687653 -152.51834134 344.08135167 -154.5234375 342.390625 C-160.64645704 337.24117361 -166.86009557 332.36646985 -173.35546875 327.703125 C-174.0825 327.105 -174.80953125 326.506875 -175.55859375 325.890625 C-175.55859375 325.230625 -175.55859375 324.570625 -175.55859375 323.890625 C-176.17734375 323.58125 -176.79609375 323.271875 -177.43359375 322.953125 C-178.80859375 322.265625 -180.18359375 321.578125 -181.55859375 320.890625 C-181.55859375 320.230625 -181.55859375 319.570625 -181.55859375 318.890625 C-182.1309375 318.6225 -182.70328125 318.354375 -183.29296875 318.078125 C-185.63744009 316.84929864 -187.68264313 315.46540324 -189.80859375 313.890625 C-190.515 313.375 -191.22140625 312.859375 -191.94921875 312.328125 C-192.74585938 311.6165625 -192.74585938 311.6165625 -193.55859375 310.890625 C-193.55859375 310.230625 -193.55859375 309.570625 -193.55859375 308.890625 C-194.44562988 308.47550659 -194.44562988 308.47550659 -195.35058594 308.05200195 C-197.43396853 306.95617588 -199.07590523 305.80152903 -200.88671875 304.30859375 C-201.51392822 303.79490234 -202.1411377 303.28121094 -202.78735352 302.75195312 C-203.45436279 302.19958984 -204.12137207 301.64722656 -204.80859375 301.078125 C-206.23955759 299.90491652 -207.67054796 298.7317404 -209.1015625 297.55859375 C-209.83552246 296.95450684 -210.56948242 296.35041992 -211.32568359 295.72802734 C-214.91670489 292.77307149 -218.51746403 289.83018158 -222.12109375 286.890625 C-223.08354004 286.10014771 -223.08354004 286.10014771 -224.06542969 285.29370117 C-227.14550259 282.77959368 -230.24483776 280.39162849 -233.5234375 278.140625 C-235.02583984 277.026875 -235.02583984 277.026875 -236.55859375 275.890625 C-236.55859375 275.230625 -236.55859375 274.570625 -236.55859375 273.890625 C-237.0896875 273.6534375 -237.62078125 273.41625 -238.16796875 273.171875 C-241.2560197 271.51684116 -244.01144095 269.48514372 -246.80859375 267.390625 C-247.36289063 266.98714844 -247.9171875 266.58367187 -248.48828125 266.16796875 C-249.8842854 265.12612329 -251.22661767 264.01317088 -252.55859375 262.890625 C-252.55859375 262.230625 -252.55859375 261.570625 -252.55859375 260.890625 C-253.09484375 260.643125 -253.63109375 260.395625 -254.18359375 260.140625 C-257.14099195 258.58409963 -259.85583426 256.85626827 -262.55859375 254.890625 C-262.55859375 254.230625 -262.55859375 253.570625 -262.55859375 252.890625 C-263.13996094 252.62507812 -263.72132813 252.35953125 -264.3203125 252.0859375 C-267.45176663 250.41364262 -269.85799329 248.24118152 -272.453125 245.8359375 C-274.49615263 243.88475281 -274.49615263 243.88475281 -276.6328125 242.3203125 C-280.30154257 239.12040595 -281.68715792 236.26066451 -282.23828125 231.47265625 C-282.66201535 224.63546659 -282.98101486 217.54988282 -278.74609375 211.828125 C-276.8125 209.86328125 -276.8125 209.86328125 -274.55859375 207.890625 C-273.27275391 206.65119141 -273.27275391 206.65119141 -271.9609375 205.38671875 C-257.71585181 191.94304435 -257.71585181 191.94304435 -251.55859375 189.890625 C-251.55859375 189.230625 -251.55859375 188.570625 -251.55859375 187.890625 C-250.046875 186.55078125 -250.046875 186.55078125 -247.87109375 184.953125 C-243.83725808 181.90872072 -239.96077859 178.73500825 -236.12109375 175.453125 C-232.08760809 172.02103612 -228.04292603 168.60708205 -223.93359375 165.265625 C-223.15757812 164.63398438 -222.3815625 164.00234375 -221.58203125 163.3515625 C-219.55859375 161.890625 -219.55859375 161.890625 -216.55859375 160.890625 C-216.55859375 160.230625 -216.55859375 159.570625 -216.55859375 158.890625 C-215.046875 157.55078125 -215.046875 157.55078125 -212.87109375 155.953125 C-208.81264519 152.89171262 -204.91892464 149.69416656 -201.05859375 146.390625 C-187.02016701 134.4328718 -187.02016701 134.4328718 -181.55859375 131.890625 C-181.55859375 131.230625 -181.55859375 130.570625 -181.55859375 129.890625 C-178.09705529 126.890625 -178.09705529 126.890625 -175.55859375 126.890625 C-175.55859375 126.230625 -175.55859375 125.570625 -175.55859375 124.890625 C-174.08203125 123.5859375 -174.08203125 123.5859375 -171.93359375 122.015625 C-166.91575504 118.23429662 -162.17535577 114.18331595 -157.43310547 110.06689453 C-149.14347767 102.890625 -149.14347767 102.890625 -146.55859375 102.890625 C-146.55859375 102.230625 -146.55859375 101.570625 -146.55859375 100.890625 C-144.94476427 99.43402523 -143.26496159 98.05013549 -141.55859375 96.703125 C-137.28283509 93.29355229 -133.14760156 89.80071324 -129.1171875 86.10546875 C-127.55859375 84.890625 -127.55859375 84.890625 -125.55859375 84.890625 C-125.55859375 84.230625 -125.55859375 83.570625 -125.55859375 82.890625 C-124.08203125 81.5859375 -124.08203125 81.5859375 -121.93359375 80.015625 C-116.82741427 76.17988252 -112.03651722 72.0340042 -107.25732422 67.80322266 C-102.77421726 63.890625 -102.77421726 63.890625 -100.55859375 63.890625 C-100.55859375 63.230625 -100.55859375 62.570625 -100.55859375 61.890625 C-97.09705529 58.890625 -97.09705529 58.890625 -94.55859375 58.890625 C-94.55859375 58.230625 -94.55859375 57.570625 -94.55859375 56.890625 C-92.4765625 54.98046875 -92.4765625 54.98046875 -89.74609375 52.828125 C-88.85277344 52.11527344 -87.95945313 51.40242188 -87.0390625 50.66796875 C-84.55859375 48.890625 -84.55859375 48.890625 -81.55859375 47.890625 C-81.55859375 47.230625 -81.55859375 46.570625 -81.55859375 45.890625 C-79.94476427 44.43402523 -78.26496159 43.05013549 -76.55859375 41.703125 C-72.28283509 38.29355229 -68.14760156 34.80071324 -64.1171875 31.10546875 C-62.55859375 29.890625 -62.55859375 29.890625 -60.55859375 29.890625 C-60.55859375 29.230625 -60.55859375 28.570625 -60.55859375 27.890625 C-58.984375 26.55859375 -58.984375 26.55859375 -56.87109375 25.078125 C-53.43549409 22.58882209 -50.52537064 19.93347309 -47.55859375 16.890625 C-46.34215212 15.77245485 -45.11234487 14.66868925 -43.87109375 13.578125 C-42.99904297 12.81048828 -42.99904297 12.81048828 -42.109375 12.02734375 C-40.55859375 10.890625 -40.55859375 10.890625 -38.55859375 10.890625 C-38.55859375 10.230625 -38.55859375 9.570625 -38.55859375 8.890625 C-36.51171875 7.015625 -36.51171875 7.015625 -33.80859375 4.890625 C-32.48601562 3.83875 -32.48601562 3.83875 -31.13671875 2.765625 C-22.65922658 -3.39982385 -9.78317684 -3.04985974 0 0 Z " fill="#F26F22" transform="translate(289.55859375,33.109375)"/>
<path d="M0 0 C1.88989379 4.87070187 2.4014447 9.22391338 2.625 14.375 C2.66367187 15.11105469 2.70234375 15.84710938 2.7421875 16.60546875 C2.83557998 18.40327406 2.9188371 20.20160108 3 22 C3.66 22 4.32 22 5 22 C5.13277344 23.20398438 5.26554687 24.40796875 5.40234375 25.6484375 C5.5805302 27.22398085 5.7589265 28.79950047 5.9375 30.375 C6.02451172 31.1690625 6.11152344 31.963125 6.20117188 32.78125 C6.6038935 37.02255001 6.6038935 37.02255001 8 41 C8.23172827 43.54615009 8.41894529 46.07396225 8.5625 48.625 C8.60568359 49.33140625 8.64886719 50.0378125 8.69335938 50.765625 C8.79944751 52.51018537 8.90022889 54.25506697 9 56 C4.0577081 58.51449939 -0.8817659 60.86740246 -6 63 C-5.07316406 62.91621094 -4.14632812 62.83242188 -3.19140625 62.74609375 C-1.39509766 62.59333984 -1.39509766 62.59333984 0.4375 62.4375 C2.22994141 62.28087891 2.22994141 62.28087891 4.05859375 62.12109375 C5.02925781 62.08113281 5.99992187 62.04117188 7 62 C8 63 8 63 8.09765625 65.28515625 C8.08025391 66.65994141 8.08025391 66.65994141 8.0625 68.0625 C8.05347656 68.98160156 8.04445313 69.90070313 8.03515625 70.84765625 C8.01775391 71.91306641 8.01775391 71.91306641 8 73 C-0.35600408 74.10102642 -8.58807963 74.10094304 -17 74 C-17 74.66 -17 75.32 -17 76 C-27.23 76 -37.46 76 -48 76 C-48 76.66 -48 77.32 -48 78 C-34.14 78 -20.28 78 -6 78 C-6 77.34 -6 76.68 -6 76 C-0.06 75.505 -0.06 75.505 6 75 C6.495 79.95 6.495 79.95 7 85 C3.69571283 86.10142906 1.22872378 86.12933775 -2.25 86.1328125 C-3.49910156 86.13410156 -4.74820313 86.13539063 -6.03515625 86.13671875 C-7.34355469 86.13285156 -8.65195312 86.12898438 -10 86.125 C-11.27746094 86.12886719 -12.55492187 86.13273437 -13.87109375 86.13671875 C-33.54095435 86.11658583 -33.54095435 86.11658583 -42.26171875 82.81640625 C-46.811643 81.45986678 -51.53298047 80.87244762 -56.23681641 80.26611328 C-58.40234375 79.94140625 -58.40234375 79.94140625 -62 79 C-63.37890625 76.96484375 -63.37890625 76.96484375 -64 75 C-64.99 74.505 -64.99 74.505 -66 74 C-65.9175 75.010625 -65.835 76.02125 -65.75 77.0625 C-66.05731769 81.90275368 -67.3836295 83.99368267 -70 88 C-70.66 88 -71.32 88 -72 88 C-72.165 88.680625 -72.33 89.36125 -72.5 90.0625 C-75.39823555 95.73821128 -81.29744358 100.26634209 -87 103 C-89.80925018 103.31884128 -92.32334164 103.4748596 -95.125 103.4375 C-95.87257568 103.43427734 -96.62015137 103.43105469 -97.39038086 103.42773438 C-103.78617374 103.26813193 -109.22388277 101.794493 -115 99 C-115 98.34 -115 97.68 -115 97 C-116.65 96.34 -118.3 95.68 -120 95 C-120 89.28041769 -117.23664659 87.09148279 -113.46875 83.01953125 C-111 81 -111 81 -108.84375 80.57421875 C-106.9375 80.875 -106.9375 80.875 -104 82 C-104 82.66 -104 83.32 -104 84 C-102.06177404 83.96694498 -100.12414332 83.89750095 -98.1875 83.8125 C-97.10855469 83.77769531 -96.02960938 83.74289062 -94.91796875 83.70703125 C-91.7836556 83.2777846 -91.7836556 83.2777846 -90.11328125 80.44921875 C-89.56220703 79.23685547 -89.56220703 79.23685547 -89 78 C-90.62808594 78.05220703 -90.62808594 78.05220703 -92.2890625 78.10546875 C-93.73435942 78.13362388 -95.17967321 78.16092219 -96.625 78.1875 C-97.33785156 78.21263672 -98.05070312 78.23777344 -98.78515625 78.26367188 C-104.47633789 78.34199089 -108.54610859 77.26354763 -112.86328125 73.28125 C-113.34152344 72.6934375 -113.81976563 72.105625 -114.3125 71.5 C-114.80363281 70.9121875 -115.29476563 70.324375 -115.80078125 69.71875 C-121.77040545 61.16293682 -117.47605924 43.81873585 -116.40087891 33.92822266 C-116.12177312 31.34513562 -115.85911894 28.7607075 -115.59765625 26.17578125 C-115.42284595 24.52073049 -115.24709978 22.86577825 -115.0703125 21.2109375 C-114.99313995 20.44429779 -114.91596741 19.67765808 -114.8364563 18.88778687 C-114.40264776 15.00570051 -113.7800374 12.5600748 -112 9 C-105.07 9 -98.14 9 -91 9 C-90.74163899 20.49706477 -91.85489673 31.41805878 -94.125 42.6875 C-95.23834654 48.46298517 -95.1841222 54.13877661 -95 60 C-92.03 60 -89.06 60 -86 60 C-85.67 53.73 -85.34 47.46 -85 41 C-84.34 41 -83.68 41 -83 41 C-83.02320313 40.37996094 -83.04640625 39.75992188 -83.0703125 39.12109375 C-83.27144418 29.25127482 -81.93296877 19.66484383 -80 10 C-72.74 10 -65.48 10 -58 10 C-58.41825045 18.15588378 -58.83757854 25.96501593 -60.46484375 33.96875 C-61.16264554 37.92126233 -61.5808544 41.88463463 -62 45.875 C-62.78089394 53.29388093 -63.77749706 60.63897168 -65 68 C-64.11030518 67.79636841 -64.11030518 67.79636841 -63.20263672 67.58862305 C-60.42698106 66.95393422 -57.65101348 66.32062193 -54.875 65.6875 C-53.87484863 65.45893311 -52.87469727 65.23036621 -51.84423828 64.99487305 C-45.13850846 63.46829081 -38.4245917 62.01981473 -31.6796875 60.67578125 C-29.17074917 60.04306065 -27.28833985 59.16889658 -25 58 C-18.07506415 55.9054825 -11.20120452 54.60010038 -4 54 C-4 53.34 -4 52.68 -4 52 C-3.01 52 -2.02 52 -1 52 C-1.2165625 51.16597656 -1.433125 50.33195312 -1.65625 49.47265625 C-3.30958224 42.79043845 -4.34980978 36.87959232 -4 30 C-4.66 30 -5.32 30 -6 30 C-6.33 25.71 -6.66 21.42 -7 17 C-9.289375 17.8353125 -9.289375 17.8353125 -11.625 18.6875 C-12.63304687 19.05230469 -13.64109375 19.41710937 -14.6796875 19.79296875 C-16.896593 20.5988791 -19.11016237 21.41402526 -21.3203125 22.23828125 C-43.58607438 30.42944422 -43.58607438 30.42944422 -52 30 C-52 29.34 -52 28.68 -52 28 C-48.91190305 26.23537317 -47.76687864 26 -44 26 C-44 25.34 -44 24.68 -44 24 C-41.72930578 23.18710947 -39.45845099 22.37467262 -37.1875 21.5625 C-36.54490234 21.33240234 -35.90230469 21.10230469 -35.24023438 20.86523438 C-32.50071717 19.88582149 -29.76013914 18.92004638 -27 18 C-27 17.34 -27 16.68 -27 16 C-25.55053711 14.95019531 -25.55053711 14.95019531 -23.52734375 13.828125 C-22.79193359 13.41046875 -22.05652344 12.9928125 -21.29882812 12.5625 C-19.75213419 11.70279916 -18.20526568 10.84341231 -16.65820312 9.984375 C-12.13714085 7.4165682 -8.27905382 4.7224757 -4.51000977 1.12792969 C-3 0 -3 0 0 0 Z " fill="#FEFBF9" transform="translate(448,225)"/>
<path d="M0 0 C7.92 0 15.84 0 24 0 C24.99 2.97 25.98 5.94 27 9 C27.61790409 10.58611601 28.24184362 12.16991062 28.875 13.75 C31.33099692 20.31814501 32.73509718 27.1504994 34.16162109 34.00292969 C34.3570752 34.89141602 34.5525293 35.77990234 34.75390625 36.6953125 C35.00636108 37.9021167 35.00636108 37.9021167 35.26391602 39.13330078 C35.50682373 39.74931152 35.74973145 40.36532227 36 41 C36.99 41.33 37.98 41.66 39 42 C39.33 40.35 39.66 38.7 40 37 C40.66 37 41.32 37 42 37 C42 36.34 42 35.68 42 35 C42.66 35 43.32 35 44 35 C44.09796875 34.41992188 44.1959375 33.83984375 44.296875 33.2421875 C45.32016334 27.89638807 46.78238844 24.46890494 50 20 C51.48685479 17.34577989 52.91623864 14.66515377 54.33984375 11.9765625 C54.88769531 10.99429688 55.43554688 10.01203125 56 9 C56.28786377 8.30165039 56.57572754 7.60330078 56.87231445 6.88378906 C58.03192351 4.44858308 58.99919096 2.82191511 61 1 C65.13754814 0.00381774 69.08754553 0.24319388 73.3125 0.5 C74.43462891 0.53609375 75.55675781 0.5721875 76.71289062 0.609375 C79.47874621 0.70353179 82.23762241 0.83487339 85 1 C85.18085396 8.53101461 84.70941475 15.7373621 83.625 23.1875 C83.43550781 24.58645508 83.43550781 24.58645508 83.2421875 26.01367188 C82.67112961 30.07674873 82.04394643 34.0401858 80.9609375 38 C79.66916813 42.87225738 79.37791376 47.80073583 79 52.8125 C78.45771392 59.41384233 77.78853993 65.83642569 76.44140625 72.328125 C75.47874501 78.15520718 75.3021584 84.1079113 75 90 C74.34 90 73.68 90 73 90 C73 90.66 73 91.32 73 92 C65.08 92 57.16 92 49 92 C49.66461612 84.6892227 50.25648583 79.96566031 52.234375 73.32421875 C53.91693996 66.01879641 54.34326309 58.45589546 55 51 C52.71632768 54.91966446 50.54679491 58.76636897 48.75 62.9375 C48.41484375 63.70964844 48.0796875 64.48179687 47.734375 65.27734375 C47.49203125 65.84582031 47.2496875 66.41429687 47 67 C46.34 67 45.68 67 45 67 C44.86722656 67.57234375 44.73445313 68.1446875 44.59765625 68.734375 C43.66703459 72.26222182 42.30550009 75.59434759 41 79 C35.39 79 29.78 79 24 79 C22.8422494 75.52674819 22.93133348 72.63932552 23 69 C22.34 69 21.68 69 21 69 C21 67.35 21 65.7 21 64 C20.34 64 19.68 64 19 64 C18.505 57.565 18.505 57.565 18 51 C17.01 51.495 17.01 51.495 16 52 C15.98018066 52.6391333 15.96036133 53.2782666 15.93994141 53.93676758 C15.84336503 56.89568633 15.73423609 59.85402259 15.625 62.8125 C15.5940625 63.81732422 15.563125 64.82214844 15.53125 65.85742188 C15.26627183 72.72477283 14.41290759 79.27499153 13 86 C12.34 86 11.68 86 11 86 C11 87.65 11 89.3 11 91 C3.74 91 -3.52 91 -11 91 C-11.27447402 80.30958866 -10.26971111 70.45340559 -8.5625 59.9375 C-8.09888487 57.03095256 -7.64199334 54.12343905 -7.19140625 51.21484375 C-7.08262146 50.51489792 -6.97383667 49.81495209 -6.86175537 49.09379578 C-6.04491386 43.67771409 -5.54376972 38.27273922 -5.21411133 32.80371094 C-4.83291751 27.81211477 -3.87976074 22.92327643 -3 18 C-2.4512171 14.75117735 -1.91368429 11.50050981 -1.375 8.25 C-0.92125 5.5275 -0.4675 2.805 0 0 Z " fill="#FEFBF9" transform="translate(71,210)"/>
<path d="M0 0 C4.95 0 9.9 0 15 0 C15 0.66 15 1.32 15 2 C16.09441406 2.18175781 16.09441406 2.18175781 17.2109375 2.3671875 C22.9314159 3.66511117 27.7140436 6.12951797 31.0625 11 C33.0592074 17.0571258 33.00075051 24.99774848 31 31 C30.83462836 32.38570032 30.70678649 33.77611823 30.60546875 35.16796875 C30.53650391 35.97943359 30.46753906 36.79089844 30.39648438 37.62695312 C30.25882009 39.31366223 30.13096623 41.00120518 30.01367188 42.68945312 C29.25561007 51.20255423 26.50729583 57.30611615 20 63 C16.49258844 65.86970037 13.6228006 68 9 68 C9 68.66 9 69.32 9 70 C0.54199591 71.88631746 -8.13038497 71.99045126 -16 68 C-18.8125 65.625 -18.8125 65.625 -21 63 C-21.7425 62.113125 -22.485 61.22625 -23.25 60.3125 C-25.56196645 57.25740147 -26.12701323 55.69542888 -26.1328125 51.9375 C-26.13410156 51.14085937 -26.13539063 50.34421875 -26.13671875 49.5234375 C-26.13285156 48.69070313 -26.12898437 47.85796875 -26.125 47 C-26.13080078 45.75089844 -26.13080078 45.75089844 -26.13671875 44.4765625 C-26.13542969 43.67992187 -26.13414062 42.88328125 -26.1328125 42.0625 C-26.13168457 41.33160156 -26.13055664 40.60070312 -26.12939453 39.84765625 C-26 38 -26 38 -25 36 C-24.80855818 34.18130275 -24.62045413 32.36213435 -24.45629883 30.54077148 C-23.76777598 23.31250377 -22.97401403 17.60231054 -18 12 C-17.44828125 11.36578125 -16.8965625 10.7315625 -16.328125 10.078125 C-12.27344393 5.73638687 -8.29607728 2.21496156 -2.125 1.8125 C-1.073125 1.9053125 -1.073125 1.9053125 0 2 C0 1.34 0 0.68 0 0 Z " fill="#FEFAF8" transform="translate(179,233)"/>
<path d="M0 0 C3.05713878 2.57443266 4.31108609 4.10927668 5 8 C5.12025295 10.35192393 5.17532335 12.70753531 5.1875 15.0625 C5.20167969 16.29097656 5.21585937 17.51945312 5.23046875 18.78515625 C5.14518181 21.99078228 4.67344811 24.99481171 4.05859375 28.140625 C2.80109788 34.62397597 2.32584484 41.10590438 1.875 47.6875 C1.78863281 48.87794922 1.70226562 50.06839844 1.61328125 51.29492188 C1.40354461 54.19627875 1.19921676 57.09790511 1 60 C0.34 60 -0.32 60 -1 60 C-1 60.99 -1 61.98 -1 63 C-8.26 63 -15.52 63 -23 63 C-21.39629338 38.02799685 -21.39629338 38.02799685 -19 26 C-18.34 26 -17.68 26 -17 26 C-17 22.04 -17 18.08 -17 14 C-20.3 13.67 -23.6 13.34 -27 13 C-27.12375 14.258125 -27.2475 15.51625 -27.375 16.8125 C-27.74779045 20.20961863 -28.2714722 23.52388372 -28.9375 26.875 C-30.07611879 32.85485718 -30.66398485 38.86595109 -31.21459961 44.92333984 C-31.7755746 50.78869282 -32.82870946 56.1435473 -34 62 C-40.93 62 -47.86 62 -55 62 C-55.28857121 53.43905408 -54.57384674 45.96899486 -52.734375 37.61328125 C-51.74858147 32.76296734 -51.29752414 27.93479697 -51 23 C-50.34 23 -49.68 23 -49 23 C-49.02320313 22.35675781 -49.04640625 21.71351563 -49.0703125 21.05078125 C-49.17816276 15.65056462 -48.95682521 10.36536225 -48.3125 5 C-48.18488281 3.9275 -48.05726563 2.855 -47.92578125 1.75 C-47 -1 -47 -1 -44.78515625 -2.80078125 C-31.00252446 -8.73523842 -12.5836815 -8.0725504 0 0 Z " fill="#FEFBF9" transform="translate(266,240)"/>
<path d="M0 0 C0.77923828 0.01353516 1.55847656 0.02707031 2.36132812 0.04101562 C4.26202404 0.07599776 6.16235834 0.12979041 8.0625 0.1875 C8.0625 0.8475 8.0625 1.5075 8.0625 2.1875 C8.79984375 2.28289062 9.5371875 2.37828125 10.296875 2.4765625 C13.44984826 3.28707258 14.91490738 4.3936853 17.3125 6.5625 C17.99828125 7.16835937 18.6840625 7.77421875 19.390625 8.3984375 C23.34901453 12.63428424 22.52349642 18.90464395 22.40625 24.37109375 C21.93568321 29.59545457 20.50072351 33.23265223 17.0625 37.1875 C15.12864275 38.79750556 13.26530307 39.93590735 11.0625 41.1875 C10.5675 42.1775 10.5675 42.1775 10.0625 43.1875 C2.83550785 45.73820311 -4.35023028 45.379313 -11.9375 45.1875 C-10.84965032 48.43733135 -10.84965032 48.43733135 -8.9375 51.1875 C-6.93759484 51.38739763 -6.93759484 51.38739763 -4.625 51.375 C-3.84511719 51.38917969 -3.06523437 51.40335937 -2.26171875 51.41796875 C0.10077506 51.33070501 0.10077506 51.33070501 2.10546875 50.11328125 C4.0625 49.1875 4.0625 49.1875 6.046875 49.3203125 C8.69477506 50.45952531 10.28931576 52.01683594 12.3125 54.0625 C13.01890625 54.76117188 13.7253125 55.45984375 14.453125 56.1796875 C16.0625 58.1875 16.0625 58.1875 16.0625 61.1875 C13.83203125 62.94140625 13.83203125 62.94140625 10.875 64.75 C9.91207031 65.34941406 8.94914062 65.94882812 7.95703125 66.56640625 C-0.68558976 71.40674056 -10.20462273 71.43594182 -19.9375 70.1875 C-24.98917868 68.34772908 -27.77519748 65.70201541 -31 61.5 C-31.9375 59.1875 -31.9375 59.1875 -31.9375 56.1875 C-32.5975 56.1875 -33.2575 56.1875 -33.9375 56.1875 C-34.56614381 48.06751746 -33.49950842 40.42603623 -32.125 32.4375 C-31.95967773 31.45579834 -31.79435547 30.47409668 -31.62402344 29.46264648 C-29.71559764 18.84680338 -27.01514918 10.89485946 -18.01171875 4.3984375 C-11.75244944 0.74425014 -7.15791909 -0.23921066 0 0 Z " fill="#FEFAF8" transform="translate(306.9375,232.8125)"/>
<path d="M0 0 C1.88989379 4.87070187 2.4014447 9.22391338 2.625 14.375 C2.66367187 15.11105469 2.70234375 15.84710938 2.7421875 16.60546875 C2.83557998 18.40327406 2.9188371 20.20160108 3 22 C3.66 22 4.32 22 5 22 C5.13277344 23.20398438 5.26554687 24.40796875 5.40234375 25.6484375 C5.5805302 27.22398085 5.7589265 28.79950047 5.9375 30.375 C6.02451172 31.1690625 6.11152344 31.963125 6.20117188 32.78125 C6.6038935 37.02255001 6.6038935 37.02255001 8 41 C8.23172827 43.54615009 8.41894529 46.07396225 8.5625 48.625 C8.60568359 49.33140625 8.64886719 50.0378125 8.69335938 50.765625 C8.79944751 52.51018537 8.90022889 54.25506697 9 56 C4.0577081 58.51449939 -0.8817659 60.86740246 -6 63 C-5.07316406 62.91621094 -4.14632812 62.83242188 -3.19140625 62.74609375 C-1.39509766 62.59333984 -1.39509766 62.59333984 0.4375 62.4375 C2.22994141 62.28087891 2.22994141 62.28087891 4.05859375 62.12109375 C5.02925781 62.08113281 5.99992187 62.04117188 7 62 C8 63 8 63 8.09765625 65.28515625 C8.08605469 66.20167969 8.07445312 67.11820312 8.0625 68.0625 C8.05347656 68.98160156 8.04445313 69.90070313 8.03515625 70.84765625 C8.02355469 71.55792969 8.01195312 72.26820313 8 73 C-0.35600408 74.10102642 -8.58807963 74.10094304 -17 74 C-17 74.66 -17 75.32 -17 76 C-27.23 76 -37.46 76 -48 76 C-48 76.66 -48 77.32 -48 78 C-34.14 78 -20.28 78 -6 78 C-6 77.34 -6 76.68 -6 76 C-0.06 75.505 -0.06 75.505 6 75 C6.495 79.95 6.495 79.95 7 85 C3.69571283 86.10142906 1.22872378 86.12933775 -2.25 86.1328125 C-3.49910156 86.13410156 -4.74820313 86.13539063 -6.03515625 86.13671875 C-7.34355469 86.13285156 -8.65195312 86.12898438 -10 86.125 C-11.27746094 86.12886719 -12.55492187 86.13273437 -13.87109375 86.13671875 C-33.54095435 86.11658583 -33.54095435 86.11658583 -42.26171875 82.81640625 C-46.811643 81.45986678 -51.53298047 80.87244762 -56.23681641 80.26611328 C-58.40234375 79.94140625 -58.40234375 79.94140625 -62 79 C-63.37890625 76.96484375 -63.37890625 76.96484375 -64 75 C-64.66 74.67 -65.32 74.34 -66 74 C-65.938125 75.051875 -65.87625 76.10375 -65.8125 77.1875 C-66.0077786 81.15816493 -66.70325068 82.84196969 -69 86 C-70.37896407 83.24207187 -69.56163923 82.15444092 -68.625 79.25 C-66.6788613 72.55848201 -66.29359025 65.93480425 -66 59 C-65.67 59 -65.34 59 -65 59 C-65 61.97 -65 64.94 -65 68 C-63.57429688 67.67386719 -62.14859375 67.34773438 -60.6796875 67.01171875 C-58.74481901 66.57019265 -56.80992119 66.12879506 -54.875 65.6875 C-53.87484863 65.45893311 -52.87469727 65.23036621 -51.84423828 64.99487305 C-45.13850846 63.46829081 -38.4245917 62.01981473 -31.6796875 60.67578125 C-29.17074917 60.04306065 -27.28833985 59.16889658 -25 58 C-18.07506415 55.9054825 -11.20120452 54.60010038 -4 54 C-4 53.34 -4 52.68 -4 52 C-3.01 52 -2.02 52 -1 52 C-1.2165625 51.16597656 -1.433125 50.33195312 -1.65625 49.47265625 C-3.30958224 42.79043845 -4.34980978 36.87959232 -4 30 C-4.66 30 -5.32 30 -6 30 C-6.33 25.71 -6.66 21.42 -7 17 C-8.52625 17.556875 -10.0525 18.11375 -11.625 18.6875 C-12.63304687 19.05230469 -13.64109375 19.41710937 -14.6796875 19.79296875 C-16.896593 20.5988791 -19.11016237 21.41402526 -21.3203125 22.23828125 C-43.58607438 30.42944422 -43.58607438 30.42944422 -52 30 C-52 29.34 -52 28.68 -52 28 C-48.91190305 26.23537317 -47.76687864 26 -44 26 C-44 25.34 -44 24.68 -44 24 C-41.72930578 23.18710947 -39.45845099 22.37467262 -37.1875 21.5625 C-36.22360352 21.21735352 -36.22360352 21.21735352 -35.24023438 20.86523438 C-32.50071717 19.88582149 -29.76013914 18.92004638 -27 18 C-27 17.34 -27 16.68 -27 16 C-25.55053711 14.95019531 -25.55053711 14.95019531 -23.52734375 13.828125 C-22.79193359 13.41046875 -22.05652344 12.9928125 -21.29882812 12.5625 C-19.75213419 11.70279916 -18.20526568 10.84341231 -16.65820312 9.984375 C-12.13714085 7.4165682 -8.27905382 4.7224757 -4.51000977 1.12792969 C-3 0 -3 0 0 0 Z " fill="#F59155" transform="translate(448,225)"/>
<path d="M0 0 C1.93166016 0.01740234 1.93166016 0.01740234 3.90234375 0.03515625 C5.19269531 0.04417969 6.48304688 0.05320313 7.8125 0.0625 C8.81152344 0.07410156 9.81054688 0.08570313 10.83984375 0.09765625 C13.42108566 4.99311505 15.44431127 9.71318465 17.12109375 14.98046875 C18.83611548 20.45687235 18.83611548 20.45687235 22.83984375 24.09765625 C22.88109375 23.19015625 22.92234375 22.28265625 22.96484375 21.34765625 C24.0270318 13.6936541 28.94106854 6.59561493 32.83984375 0.09765625 C37.45984375 0.09765625 42.07984375 0.09765625 46.83984375 0.09765625 C46.83984375 18.24765625 46.83984375 36.39765625 46.83984375 55.09765625 C42.21984375 55.09765625 37.59984375 55.09765625 32.83984375 55.09765625 C32.34484375 44.70265625 32.34484375 44.70265625 31.83984375 34.09765625 C29.31891828 38.99867743 29.31891828 38.99867743 27.65234375 43.97265625 C27.38421875 45.00390625 27.11609375 46.03515625 26.83984375 47.09765625 C25.21520533 47.15161103 23.59005834 47.1904282 21.96484375 47.22265625 C20.60746094 47.25746094 20.60746094 47.25746094 19.22265625 47.29296875 C16.83984375 47.09765625 16.83984375 47.09765625 14.83984375 45.09765625 C14.24149821 43.57709007 13.70477719 42.03153537 13.21484375 40.47265625 C12.95445312 39.65539062 12.6940625 38.838125 12.42578125 37.99609375 C12.23242188 37.36960938 12.0390625 36.743125 11.83984375 36.09765625 C11.77925781 37.38542969 11.71867188 38.67320312 11.65625 40 C11.57186128 41.67839784 11.48721245 43.35678261 11.40234375 45.03515625 C11.36302734 45.88529297 11.32371094 46.73542969 11.28320312 47.61132812 C11.24130859 48.42021484 11.19941406 49.22910156 11.15625 50.0625 C11.10126343 51.18579712 11.10126343 51.18579712 11.04516602 52.33178711 C10.83984375 54.09765625 10.83984375 54.09765625 9.83984375 55.09765625 C7.4867082 55.17037366 5.13150707 55.18136493 2.77734375 55.16015625 C1.48699219 55.15113281 0.19664062 55.14210937 -1.1328125 55.1328125 C-2.13183594 55.12121094 -3.13085938 55.10960937 -4.16015625 55.09765625 C-4.1854223 47.42554423 -4.20298748 39.75344285 -4.21508789 32.08129883 C-4.22013002 29.46899006 -4.2269635 26.85668414 -4.2355957 24.24438477 C-4.24766661 20.49885357 -4.2533856 16.75335953 -4.2578125 13.0078125 C-4.26297379 11.8317897 -4.26813507 10.65576691 -4.27345276 9.44410706 C-4.27356606 7.82253944 -4.27356606 7.82253944 -4.27368164 6.16821289 C-4.27590225 5.2111293 -4.27812286 4.25404572 -4.28041077 3.26795959 C-4.08717651 -0.21945161 -3.58142308 0.11067438 0 0 Z " fill="#0766AF" transform="translate(169.16015625,167.90234375)"/>
<path d="M0 0 C9.31633562 -0.22974934 14.3544722 1.08427339 21.37109375 7.2578125 C25.11419422 11.25382516 25.35419873 14.54920133 25.3359375 19.95703125 C25.33547928 20.61013779 25.33502106 21.26324432 25.33454895 21.93614197 C25.33153711 23.31202011 25.32368283 24.68789517 25.3112793 26.0637207 C25.2930002 28.16825448 25.29076996 30.27234815 25.29101562 32.37695312 C25.25325349 42.66602079 25.25325349 42.66602079 24.10546875 46.109375 C22.45544047 47.46324436 20.78803005 48.79615642 19.10546875 50.109375 C18.44546875 51.099375 17.78546875 52.089375 17.10546875 53.109375 C10.09131967 56.75133702 2.89920146 56.84843586 -4.89453125 56.109375 C-7.31640625 55.08984375 -7.31640625 55.08984375 -8.89453125 54.109375 C-8.89453125 53.449375 -8.89453125 52.789375 -8.89453125 52.109375 C-9.61640625 52.0475 -10.33828125 51.985625 -11.08203125 51.921875 C-14.81869535 50.84239426 -16.42105388 49.06380631 -18.89453125 46.109375 C-20.74397677 40.94941484 -20.08049271 35.09173961 -20.07983398 29.69213867 C-20.08202033 27.68191345 -20.10019804 25.67223764 -20.11914062 23.66210938 C-20.12107422 22.38787109 -20.12300781 21.11363281 -20.125 19.80078125 C-20.12910889 18.63748291 -20.13321777 17.47418457 -20.13745117 16.27563477 C-19.7326205 10.99900262 -18.13468072 7.84718946 -14.20703125 4.359375 C-9.4894386 0.46883795 -6.01477974 0.22727913 0 0 Z " fill="#0866AE" transform="translate(239.89453125,167.890625)"/>
<path d="M0 0 C6.20798349 3.54741914 9.62163477 6.84495249 11.5625 13.8125 C11.98565625 18.11909272 11.93268587 22.42450569 11.9375 26.75 C11.96199219 27.90435547 11.98648438 29.05871094 12.01171875 30.24804688 C12.03498213 37.00605932 11.73132408 41.3930287 7.5625 46.8125 C5.5625 48.7734375 5.5625 48.7734375 3.5625 50.1875 C2.9025 50.66960937 2.2425 51.15171875 1.5625 51.6484375 C-4.36702162 55.09960438 -12.53354603 54.65991516 -19.046875 53.24609375 C-24.02587229 51.65047549 -28.81736789 49.96988055 -32.04101562 45.67724609 C-34.61001096 40.40721265 -33.95586529 34.47885679 -33.93847656 28.72070312 C-33.93750557 26.45052674 -33.97912689 24.18375027 -34.0234375 21.9140625 C-34.12530207 9.79485508 -34.12530207 9.79485508 -31.1640625 5.421875 C-28.87667204 3.23279645 -27.1942208 1.66929438 -24.3125 0.4375 C-23.64992188 0.14101562 -22.98734375 -0.15546875 -22.3046875 -0.4609375 C-14.91507688 -3.33639268 -7.21502357 -3.45584463 0 0 Z " fill="#0766AF" transform="translate(301.4375,169.1875)"/>
<path d="M0 0 C1.39456452 0.00667256 2.78911118 0.01863093 4.18359375 0.03515625 C5.2499707 0.04192383 5.2499707 0.04192383 6.33789062 0.04882812 C8.09899388 0.06064761 9.86005411 0.07858362 11.62109375 0.09765625 C11.23130169 6.65691568 10.19996182 12.04292252 7.62109375 18.09765625 C6.96109375 18.09765625 6.30109375 18.09765625 5.62109375 18.09765625 C5.29109375 21.39765625 4.96109375 24.69765625 4.62109375 28.09765625 C3.96109375 28.09765625 3.30109375 28.09765625 2.62109375 28.09765625 C2.43546875 29.05671875 2.43546875 29.05671875 2.24609375 30.03515625 C1.42311155 34.06776901 0.522234 38.08189532 -0.37890625 42.09765625 C-1.03890625 42.09765625 -1.69890625 42.09765625 -2.37890625 42.09765625 C-2.70890625 43.41765625 -3.03890625 44.73765625 -3.37890625 46.09765625 C-4.03890625 46.09765625 -4.69890625 46.09765625 -5.37890625 46.09765625 C-5.52328125 47.39703125 -5.66765625 48.69640625 -5.81640625 50.03515625 C-6.25390625 53.97265625 -6.25390625 53.97265625 -7.37890625 55.09765625 C-9.7320418 55.17037366 -12.08724293 55.18136493 -14.44140625 55.16015625 C-15.73175781 55.15113281 -17.02210938 55.14210937 -18.3515625 55.1328125 C-19.35058594 55.12121094 -20.34960938 55.10960937 -21.37890625 55.09765625 C-21.62125 54.41960937 -21.86359375 53.7415625 -22.11328125 53.04296875 C-23.75388678 48.4871334 -25.41552776 43.95273828 -27.25390625 39.47265625 C-29.98081176 32.7362296 -32.33656727 25.86518534 -34.71679688 19.00048828 C-35.26868724 17.41441399 -35.83039221 15.83175907 -36.39453125 14.25 C-37.93371678 9.85124919 -38.88538242 5.73678025 -39.37890625 1.09765625 C-34.75890625 1.09765625 -30.13890625 1.09765625 -25.37890625 1.09765625 C-21.1976495 9.87829543 -18.0170224 19.31431344 -18.37890625 29.09765625 C-17.71890625 29.09765625 -17.05890625 29.09765625 -16.37890625 29.09765625 C-16.04890625 31.73765625 -15.71890625 34.37765625 -15.37890625 37.09765625 C-14.71890625 37.09765625 -14.05890625 37.09765625 -13.37890625 37.09765625 C-13.27400879 36.26741943 -13.27400879 36.26741943 -13.16699219 35.42041016 C-10.66478799 16.09068162 -10.66478799 16.09068162 -6.37890625 7.09765625 C-5.98703125 5.92203125 -5.59515625 4.74640625 -5.19140625 3.53515625 C-4.052058 0.1171115 -4.052058 0.1171115 0 0 Z " fill="#0866AE" transform="translate(350.37890625,166.90234375)"/>
<path d="M0 0 C1.88989379 4.87070187 2.4014447 9.22391338 2.625 14.375 C2.68300781 15.47908203 2.68300781 15.47908203 2.7421875 16.60546875 C2.83557998 18.40327406 2.9188371 20.20160108 3 22 C3.66 22 4.32 22 5 22 C5.19916016 23.80597656 5.19916016 23.80597656 5.40234375 25.6484375 C5.5805302 27.22398085 5.7589265 28.79950047 5.9375 30.375 C6.06801758 31.56609375 6.06801758 31.56609375 6.20117188 32.78125 C6.6038935 37.02255001 6.6038935 37.02255001 8 41 C8.23172827 43.54615009 8.41894529 46.07396225 8.5625 48.625 C8.60568359 49.33140625 8.64886719 50.0378125 8.69335938 50.765625 C8.79944751 52.51018537 8.90022889 54.25506697 9 56 C3.78997129 58.89446039 -0.6625687 60.50348605 -6.5234375 61.50390625 C-8.84967631 61.96988784 -10.85646281 62.64398943 -13.0625 63.5 C-18.28388902 65.36276581 -23.66494497 65.80237448 -29.14868164 66.35351562 C-32.25929615 66.66630304 -35.02216952 67.00738984 -38 68 C-40.73865287 68.07051114 -43.45027588 68.09357765 -46.1875 68.0625 C-46.93708984 68.05798828 -47.68667969 68.05347656 -48.45898438 68.04882812 C-50.30602383 68.03706354 -52.15302213 68.01912865 -54 68 C-54 67.67 -54 67.34 -54 67 C-53.319375 66.84144531 -52.63875 66.68289063 -51.9375 66.51953125 C-41.43248671 63.99106396 -31.17560253 60.75431945 -20.9375 57.3125 C-15.20292407 55.39370653 -10.12620593 53.70116069 -4 54 C-4 53.34 -4 52.68 -4 52 C-3.01 52 -2.02 52 -1 52 C-1.2165625 51.16597656 -1.433125 50.33195312 -1.65625 49.47265625 C-3.30958224 42.79043845 -4.34980978 36.87959232 -4 30 C-4.66 30 -5.32 30 -6 30 C-6.33 25.71 -6.66 21.42 -7 17 C-8.52625 17.556875 -10.0525 18.11375 -11.625 18.6875 C-12.63304687 19.05230469 -13.64109375 19.41710937 -14.6796875 19.79296875 C-16.896593 20.5988791 -19.11016237 21.41402526 -21.3203125 22.23828125 C-43.58607438 30.42944422 -43.58607438 30.42944422 -52 30 C-52 29.34 -52 28.68 -52 28 C-48.91190305 26.23537317 -47.76687864 26 -44 26 C-44 25.34 -44 24.68 -44 24 C-41.72930578 23.18710947 -39.45845099 22.37467262 -37.1875 21.5625 C-36.54490234 21.33240234 -35.90230469 21.10230469 -35.24023438 20.86523438 C-32.50071717 19.88582149 -29.76013914 18.92004638 -27 18 C-27 17.34 -27 16.68 -27 16 C-25.55053711 14.95019531 -25.55053711 14.95019531 -23.52734375 13.828125 C-22.79193359 13.41046875 -22.05652344 12.9928125 -21.29882812 12.5625 C-19.75213419 11.70279916 -18.20526568 10.84341231 -16.65820312 9.984375 C-12.13714085 7.4165682 -8.27905382 4.7224757 -4.51000977 1.12792969 C-3 0 -3 0 0 0 Z " fill="#FEF3ED" transform="translate(448,225)"/>
<path d="M0 0 C0.79921875 0.02707031 1.5984375 0.05414063 2.421875 0.08203125 C3.02515625 0.11683594 3.6284375 0.15164062 4.25 0.1875 C4.25 0.8475 4.25 1.5075 4.25 2.1875 C4.889375 2.496875 5.52875 2.80625 6.1875 3.125 C8.25 4.1875 8.25 4.1875 9.25 5.1875 C9.5294009 8.61693439 9.48181381 12.06053685 9.5 15.5 C9.520625 16.46357422 9.54125 17.42714844 9.5625 18.41992188 C9.56765625 19.34998047 9.5728125 20.28003906 9.578125 21.23828125 C9.59214355 22.51699097 9.59214355 22.51699097 9.60644531 23.8215332 C9.17110789 26.71115987 8.24061023 28.07655514 6.25 30.1875 C3.9453125 30.68359375 3.9453125 30.68359375 1.375 30.625 C0.53195313 30.62371094 -0.31109375 30.62242187 -1.1796875 30.62109375 C-4.37111094 30.08272293 -6.17425973 29.15043457 -8.75 27.1875 C-9.38110352 24.69140625 -9.38110352 24.69140625 -9.37890625 21.75 C-9.38083984 20.69039062 -9.38277344 19.63078125 -9.38476562 18.5390625 C-9.36091797 17.43304688 -9.33707031 16.32703125 -9.3125 15.1875 C-9.32345703 14.08148438 -9.33441406 12.97546875 -9.34570312 11.8359375 C-9.2898416 5.71351395 -9.2898416 5.71351395 -8.75 3.1875 C-5.85896514 0.3981542 -3.9789012 -0.17553976 0 0 Z " fill="#E06E2C" transform="translate(242.75,179.8125)"/>
<path d="M0 0 C2.71875 1.33984375 2.71875 1.33984375 5 4 C5.72898758 7.67735449 5.65180779 11.26355504 5.5625 15 C5.57345703 15.99773437 5.58441406 16.99546875 5.59570312 18.0234375 C5.52333296 25.22185645 5.52333296 25.22185645 3.2109375 28.66015625 C-0.06029195 30.64254442 -3.33392637 30.75779176 -7 30 C-9.59179688 28.81274414 -9.59179688 28.81274414 -12 27 C-12.63110352 24.50390625 -12.63110352 24.50390625 -12.62890625 21.5625 C-12.63083984 20.50289062 -12.63277344 19.44328125 -12.63476562 18.3515625 C-12.61091797 17.24554688 -12.58707031 16.13953125 -12.5625 15 C-12.57345703 13.89398438 -12.58441406 12.78796875 -12.59570312 11.6484375 C-12.52161497 3.52837626 -12.52161497 3.52837626 -10.21069336 1.1875 C-6.93329912 -0.57299095 -3.57586823 -0.84568951 0 0 Z " fill="#EF6E23" transform="translate(294,180)"/>
<path d="M0 0 C0.495 4.95 0.495 4.95 1 10 C-2.30428717 11.10142906 -4.77127622 11.12933775 -8.25 11.1328125 C-9.49910156 11.13410156 -10.74820313 11.13539063 -12.03515625 11.13671875 C-13.34355469 11.13285156 -14.65195312 11.12898438 -16 11.125 C-17.27746094 11.12886719 -18.55492187 11.13273437 -19.87109375 11.13671875 C-31.06755306 11.12525871 -41.10678147 10.77289923 -51.6875 6.9375 C-52.49638672 6.65583984 -53.30527344 6.37417969 -54.13867188 6.08398438 C-56.09639283 5.40051966 -58.04881663 4.70191085 -60 4 C-60 3.67 -60 3.34 -60 3 C-44.16 3 -28.32 3 -12 3 C-12 2.34 -12 1.68 -12 1 C-7.89864774 0.35665063 -4.17263102 0 0 0 Z " fill="#FEF5F0" transform="translate(454,300)"/>
<path d="M0 0 C0.495 4.455 0.495 4.455 1 9 C-11.80575343 12.36993511 -25.16659913 12.16805483 -38.32836914 12.13037109 C-40.59202536 12.12492902 -42.85548973 12.13040045 -45.11914062 12.13671875 C-46.5807296 12.13605911 -48.04231845 12.13478033 -49.50390625 12.1328125 C-51.45018921 12.13112061 -51.45018921 12.13112061 -53.43579102 12.12939453 C-56.71899032 12.01020173 -59.77914961 11.62559482 -63 11 C-60.38547141 8.38547141 -59.15145431 8.71464393 -55.5 8.5625 C-49.14433704 8.16922141 -43.00629457 7.24942462 -36.74414062 6.15869141 C-32.00494765 5.33365378 -27.26686261 4.59106332 -22.5 3.9375 C-16.22461388 3.06389636 -9.98832745 2.03696514 -3.8515625 0.44140625 C-2 0 -2 0 0 0 Z " fill="#FEF3ED" transform="translate(454,288)"/>
<path d="M0 0 C0.39067318 7.37938237 -0.19099636 14.41567799 -1.375 21.6875 C-1.50108643 22.48978027 -1.62717285 23.29206055 -1.75708008 24.11865234 C-2.09779429 26.09322191 -2.54035751 28.0496821 -3 30 C-5.98594424 31.49297212 -8.70853624 31.11755228 -12 31 C-12.66 30.67 -13.32 30.34 -14 30 C-14.0636521 23.67298167 -13.90212931 17.4306601 -13.375 11.125 C-13.32988281 10.28453125 -13.28476563 9.4440625 -13.23828125 8.578125 C-13.03224073 6.23300929 -12.78808035 4.21909861 -12 2 C-7.74282331 -1.09455099 -5.04049883 -1.32013065 0 0 Z " fill="#F47F39" transform="translate(189,254)"/>
<path d="M0 0 C-1.98 0.99 -1.98 0.99 -4 2 C-3.07316406 1.91621094 -2.14632812 1.83242188 -1.19140625 1.74609375 C0.60490234 1.59333984 0.60490234 1.59333984 2.4375 1.4375 C3.63246094 1.33308594 4.82742188 1.22867187 6.05859375 1.12109375 C7.02925781 1.08113281 7.99992187 1.04117187 9 1 C10 2 10 2 10.09765625 4.28515625 C10.08605469 5.20167969 10.07445312 6.11820312 10.0625 7.0625 C10.05347656 7.98160156 10.04445313 8.90070313 10.03515625 9.84765625 C10.02355469 10.55792969 10.01195312 11.26820313 10 12 C8.68 11.67 7.36 11.34 6 11 C6.99 11 7.98 11 9 11 C8.505 6.545 8.505 6.545 8 2 C7.21625 2.28875 6.4325 2.5775 5.625 2.875 C-1.74923844 5.16355676 -9.40012777 6.26781759 -17 7.5625 C-18.10263184 7.75283813 -18.10263184 7.75283813 -19.22753906 7.94702148 C-29.56966447 9.67565999 -39.63958426 10.13547131 -50.125 10.0625 C-51.98898437 10.05573242 -51.98898437 10.05573242 -53.890625 10.04882812 C-56.92713502 10.03714924 -59.96354088 10.0207714 -63 10 C-63 9.67 -63 9.34 -63 9 C-62.23969482 8.91959473 -61.47938965 8.83918945 -60.69604492 8.75634766 C-57.19273485 8.38343438 -53.6901291 8.00425396 -50.1875 7.625 C-48.99189453 7.49867188 -47.79628906 7.37234375 -46.56445312 7.2421875 C-40.10632483 6.53830431 -33.74135799 5.67027194 -27.36108398 4.44628906 C-24.39887376 3.88637589 -21.42390532 3.47132993 -18.4375 3.0625 C-13.40225833 2.31742844 -8.73380613 1.148663 -3.92578125 -0.51171875 C-2 -1 -2 -1 0 0 Z " fill="#F7A06D" transform="translate(446,286)"/>
<path d="M0 0 C1.93166016 0.01740234 1.93166016 0.01740234 3.90234375 0.03515625 C5.19269531 0.04417969 6.48304688 0.05320313 7.8125 0.0625 C8.81152344 0.07410156 9.81054688 0.08570313 10.83984375 0.09765625 C11.53695106 1.38416331 12.22227251 2.6770629 12.90234375 3.97265625 C13.47662109 5.05160156 13.47662109 5.05160156 14.0625 6.15234375 C14.31902344 6.79429687 14.57554687 7.43625 14.83984375 8.09765625 C14.50984375 8.75765625 14.17984375 9.41765625 13.83984375 10.09765625 C13.6903125 9.53175781 13.54078125 8.96585938 13.38671875 8.3828125 C12.53450469 5.71638843 12.53450469 5.71638843 9.83984375 2.09765625 C5.87984375 1.76765625 1.91984375 1.43765625 -2.16015625 1.09765625 C-2.16015625 18.25765625 -2.16015625 35.41765625 -2.16015625 53.09765625 C1.79984375 53.09765625 5.75984375 53.09765625 9.83984375 53.09765625 C9.50984375 45.50765625 9.17984375 37.91765625 8.83984375 30.09765625 C10.15984375 30.42765625 11.47984375 30.75765625 12.83984375 31.09765625 C13.16984375 33.73765625 13.49984375 36.37765625 13.83984375 39.09765625 C13.17984375 38.10765625 12.51984375 37.11765625 11.83984375 36.09765625 C11.77925781 37.38542969 11.71867188 38.67320312 11.65625 40 C11.57186128 41.67839784 11.48721245 43.35678261 11.40234375 45.03515625 C11.36302734 45.88529297 11.32371094 46.73542969 11.28320312 47.61132812 C11.24130859 48.42021484 11.19941406 49.22910156 11.15625 50.0625 C11.10126343 51.18579712 11.10126343 51.18579712 11.04516602 52.33178711 C10.83984375 54.09765625 10.83984375 54.09765625 9.83984375 55.09765625 C7.4867082 55.17037366 5.13150707 55.18136493 2.77734375 55.16015625 C1.48699219 55.15113281 0.19664062 55.14210937 -1.1328125 55.1328125 C-2.13183594 55.12121094 -3.13085938 55.10960937 -4.16015625 55.09765625 C-4.1854223 47.42554423 -4.20298748 39.75344285 -4.21508789 32.08129883 C-4.22013002 29.46899006 -4.2269635 26.85668414 -4.2355957 24.24438477 C-4.24766661 20.49885357 -4.2533856 16.75335953 -4.2578125 13.0078125 C-4.26297379 11.8317897 -4.26813507 10.65576691 -4.27345276 9.44410706 C-4.27356606 7.82253944 -4.27356606 7.82253944 -4.27368164 6.16821289 C-4.27590225 5.2111293 -4.27812286 4.25404572 -4.28041077 3.26795959 C-4.08717651 -0.21945161 -3.58142308 0.11067438 0 0 Z " fill="#56697F" transform="translate(169.16015625,167.90234375)"/>
<path d="M0 0 C1.39456452 0.00667256 2.78911118 0.01863093 4.18359375 0.03515625 C4.89451172 0.03966797 5.60542969 0.04417969 6.33789062 0.04882812 C8.09899388 0.06064761 9.86005411 0.07858362 11.62109375 0.09765625 C11.23130169 6.65691568 10.19996182 12.04292252 7.62109375 18.09765625 C6.96109375 18.09765625 6.30109375 18.09765625 5.62109375 18.09765625 C5.29109375 21.39765625 4.96109375 24.69765625 4.62109375 28.09765625 C3.96109375 28.09765625 3.30109375 28.09765625 2.62109375 28.09765625 C2.49734375 28.73703125 2.37359375 29.37640625 2.24609375 30.03515625 C1.42311155 34.06776901 0.522234 38.08189532 -0.37890625 42.09765625 C-1.03890625 42.09765625 -1.69890625 42.09765625 -2.37890625 42.09765625 C-2.70890625 43.41765625 -3.03890625 44.73765625 -3.37890625 46.09765625 C-4.9504728 42.95452315 -3.49596201 40.73219225 -2.44140625 37.47265625 C-2.06113281 36.28414062 -1.68085938 35.095625 -1.2890625 33.87109375 C-0.98871094 32.95585937 -0.68835938 32.040625 -0.37890625 31.09765625 C0.28109375 31.09765625 0.94109375 31.09765625 1.62109375 31.09765625 C1.72421875 30.10765625 1.82734375 29.11765625 1.93359375 28.09765625 C2.7155674 22.60149859 4.54671395 17.70922595 7.62109375 13.09765625 C8.07503927 10.81852687 8.07503927 10.81852687 8.24609375 8.41015625 C8.43171875 6.27546875 8.43171875 6.27546875 8.62109375 4.09765625 C4.99109375 4.09765625 1.36109375 4.09765625 -2.37890625 4.09765625 C-3.36890625 7.06765625 -4.35890625 10.03765625 -5.37890625 13.09765625 C-6.03890625 13.09765625 -6.69890625 13.09765625 -7.37890625 13.09765625 C-7.37890625 15.40765625 -7.37890625 17.71765625 -7.37890625 20.09765625 C-8.03890625 20.09765625 -8.69890625 20.09765625 -9.37890625 20.09765625 C-9.70890625 22.07765625 -10.03890625 24.05765625 -10.37890625 26.09765625 C-11.5631288 22.65625784 -11.1809025 20.58815656 -10.06640625 17.16015625 C-9.7828125 16.27972656 -9.49921875 15.39929688 -9.20703125 14.4921875 C-8.34192566 11.99072654 -7.39687029 9.54076996 -6.37890625 7.09765625 C-6.02828125 6.02515625 -5.67765625 4.95265625 -5.31640625 3.84765625 C-4.04455571 0.11689467 -4.04455571 0.11689467 0 0 Z " fill="#55697F" transform="translate(350.37890625,166.90234375)"/>
<path d="M0 0 C0.99 0.66 1.98 1.32 3 2 C3.24869641 4.91330078 3.32634278 7.59420295 3.25 10.5 C3.24484375 11.28503906 3.2396875 12.07007813 3.234375 12.87890625 C3.15462412 18.69075176 3.15462412 18.69075176 2 21 C1.9310528 22.37342831 1.91532292 23.75002102 1.9375 25.125 C1.958125 26.40375 1.97875 27.6825 2 29 C2.66 25.04 3.32 21.08 4 17 C4.33 17 4.66 17 5 17 C5.50803456 26.05054166 3.98718981 34.2350735 2 43 C-1.465 43.495 -1.465 43.495 -5 44 C-4.69191406 43.04609375 -4.38382813 42.0921875 -4.06640625 41.109375 C-2.76206771 36.54476471 -2.35653611 31.96506718 -1.9375 27.25 C-1.78302969 25.56742256 -1.6256025 23.88511327 -1.46484375 22.203125 C-1.399021 21.46739258 -1.33319824 20.73166016 -1.26538086 19.97363281 C-1 18 -1 18 0 15 C0.07029121 12.42734182 0.09370832 9.88358569 0.0625 7.3125 C0.05798828 6.61060547 0.05347656 5.90871094 0.04882812 5.18554688 C0.03706927 3.45699462 0.01913454 1.72848635 0 0 Z " fill="#F4813D" transform="translate(210,246)"/>
<path d="M0 0 C-3.63423209 2.32590854 -6.77088331 2.16265833 -11 2 C-11 2.66 -11 3.32 -11 4 C-24.86 4 -38.72 4 -53 4 C-53 3.34 -53 2.68 -53 2 C-42.77 2 -32.54 2 -22 2 C-22 1.34 -22 0.68 -22 0 C-19.64628886 -0.1968999 -17.2925305 -0.38270974 -14.9375 -0.5625 C-13.62652344 -0.66691406 -12.31554687 -0.77132813 -10.96484375 -0.87890625 C-7.07674103 -0.99765619 -3.80889777 -0.66866216 0 0 Z " fill="#F37B33" transform="translate(453,299)"/>
<path d="M0 0 C1 1 1 1 1.3125 4.875 C1.23742331 8.68343558 1.23742331 8.68343558 -0.5 11 C-4.12079138 12.44831655 -7.11283436 12.19435828 -11 12 C-11.35555556 4.88888889 -11.35555556 4.88888889 -10 1.5 C-6.76100178 -0.92924866 -3.97256983 -0.32036853 0 0 Z " fill="#F47D37" transform="translate(308,253)"/>
<path d="M0 0 C6.93 0 13.86 0 21 0 C21.29873497 13.29370596 19.54522811 25.97601363 17 39 C16.67 39 16.34 39 16 39 C16.54425483 28.90264061 17.54392056 19.01054615 19 9 C19.33 6.69 19.66 4.38 20 2 C13.73 2 7.46 2 1 2 C0.67 4.31 0.34 6.62 0 9 C-0.3274322 11.00097458 -0.65876419 13.00133314 -1 15 C-1.33 15 -1.66 15 -2 15 C-2.05429959 13.25034642 -2.09292823 11.50020213 -2.125 9.75 C-2.15980469 8.28820312 -2.15980469 8.28820312 -2.1953125 6.796875 C-2 4 -2 4 0 0 Z " fill="#F9BD9A" transform="translate(336,234)"/>
<path d="M0 0 C0.66 0 1.32 0 2 0 C1.67 4.95 1.34 9.9 1 15 C0.34 15 -0.32 15 -1 15 C-1 15.99 -1 16.98 -1 18 C-8.26 18 -15.52 18 -23 18 C-23 15.69 -23 13.38 -23 11 C-22.67 12.32 -22.34 13.64 -22 15 C-15.4 15 -8.8 15 -2 15 C-2 13.68 -2 12.36 -2 11 C-1.34 11 -0.68 11 0 11 C0 7.37 0 3.74 0 0 Z " fill="#FAC3A3" transform="translate(266,285)"/>
<path d="M0 0 C0.66 0 1.32 0 2 0 C3.03083898 8.65529036 3.15480525 17.26936257 3.13037109 25.97167969 C3.12497682 28.25983198 3.1303655 30.54779087 3.13671875 32.8359375 C3.13605841 34.31250043 3.13477816 35.78906323 3.1328125 37.265625 C3.13168457 38.58336914 3.13055664 39.90111328 3.12939453 41.25878906 C3.00207114 44.94011656 2.59146935 48.37130325 2 52 C1.67 52 1.34 52 1 52 C0.20616314 45.25247111 -0.13808087 38.62719418 -0.09765625 31.8359375 C-0.0962413 30.91785309 -0.09482635 29.99976868 -0.09336853 29.05386353 C-0.0878322 26.16087392 -0.07529219 23.26796567 -0.0625 20.375 C-0.05747675 18.39713655 -0.0529153 16.41927186 -0.04882812 14.44140625 C-0.03788373 9.62757347 -0.02066418 4.81380046 0 0 Z " fill="#FD6F19" transform="translate(217,169)"/>
<path d="M0 0 C0 0.66 0 1.32 0 2 C-1.45686603 2.31927064 -2.91562351 2.62990834 -4.375 2.9375 C-5.18710937 3.11152344 -5.99921875 3.28554688 -6.8359375 3.46484375 C-15.93264614 5.00342287 -24.91400274 5.12660223 -34.125 5.0625 C-35.98898437 5.05573242 -35.98898437 5.05573242 -37.890625 5.04882812 C-40.92713502 5.03714924 -43.96354088 5.0207714 -47 5 C-47 4.67 -47 4.34 -47 4 C-41.59283189 3.42502964 -36.18512241 2.85555689 -30.77685547 2.29101562 C-28.9397852 2.09848989 -27.10286749 1.90450242 -25.26611328 1.70898438 C-22.61530371 1.42707516 -19.96397729 1.1505496 -17.3125 0.875 C-16.09481934 0.74375732 -16.09481934 0.74375732 -14.85253906 0.60986328 C-9.87230043 0.09867398 -5.00665316 -0.08010645 0 0 Z " fill="#F58543" transform="translate(430,291)"/>
<path d="M0 0 C0.495 4.95 0.495 4.95 1 10 C-2.30428717 11.10142906 -4.77127622 11.12933775 -8.25 11.1328125 C-9.49910156 11.13410156 -10.74820313 11.13539063 -12.03515625 11.13671875 C-13.34355469 11.13285156 -14.65195312 11.12898438 -16 11.125 C-17.27746094 11.12886719 -18.55492187 11.13273437 -19.87109375 11.13671875 C-30.73110091 11.12560308 -40.80290088 11.00330558 -51 7 C-47.78523532 5.96014445 -45.70281297 6.08960347 -42.4375 6.875 C-32.55452531 9.24158079 -22.41357986 9.13623051 -12.3125 9.0625 C-11.12205078 9.05798828 -9.93160156 9.05347656 -8.70507812 9.04882812 C-5.80333064 9.03717452 -2.90169374 9.02081559 0 9 C-0.495 8.01 -0.495 8.01 -1 7 C-1.039992 5.00039988 -1.04346799 2.99952758 -1 1 C-1.99 1.33 -2.98 1.66 -4 2 C-5.39439664 2.06665376 -6.79169875 2.08538199 -8.1875 2.0625 C-10.0746875 2.0315625 -10.0746875 2.0315625 -12 2 C-12 1.67 -12 1.34 -12 1 C-7.89864774 0.35665063 -4.17263102 0 0 0 Z " fill="#F9BF9D" transform="translate(454,300)"/>
<path d="M0 0 C0.33 0 0.66 0 1 0 C0.93941406 0.59425781 0.87882812 1.18851562 0.81640625 1.80078125 C0.73261719 2.62964844 0.64882812 3.45851563 0.5625 4.3125 C0.46839844 5.22773438 0.37429687 6.14296875 0.27734375 7.0859375 C0.0986075 8.96392679 -0.05685445 10.84434902 -0.18359375 12.7265625 C-0.65765167 19.44077061 -2.02263432 25.57045246 -4 32 C-5.22329074 28.33012779 -4.88021006 25.66032178 -4.5625 21.8125 C-4.46066406 20.54019531 -4.35882813 19.26789063 -4.25390625 17.95703125 C-4.17011719 16.98121094 -4.08632812 16.00539063 -4 15 C-5.98 15.99 -5.98 15.99 -8 17 C-6.16080754 10.86935847 -3.545386 5.31807899 0 0 Z " fill="#F7A97B" transform="translate(126,259)"/>
<path d="M0 0 C5.94 0.33 11.88 0.66 18 1 C16 6 16 6 15 7 C12.98035801 7.07244053 10.95832876 7.08377188 8.9375 7.0625 C7.28041016 7.04896484 7.28041016 7.04896484 5.58984375 7.03515625 C4.73519531 7.02355469 3.88054687 7.01195312 3 7 C2.67 6.01 2.34 5.02 2 4 C2.33 3.67 2.66 3.34 3 3 C2.01 2.01 1.02 1.02 0 0 Z " fill="#F37830" transform="translate(341,302)"/>
<path d="M0 0 C0.33 0 0.66 0 1 0 C1 4.95 1 9.9 1 15 C0.34 15 -0.32 15 -1 15 C-1 15.66 -1 16.32 -1 17 C-8.92 17 -16.84 17 -25 17 C-24 6 -24 6 -22 4 C-22.33 7.63 -22.66 11.26 -23 15 C-16.07 15 -9.14 15 -2 15 C-2 13.68 -2 12.36 -2 11 C-1.34 11 -0.68 11 0 11 C0 7.37 0 3.74 0 0 Z " fill="#FBD3BC" transform="translate(145,285)"/>
<path d="M0 0 C4.62 0 9.24 0 14 0 C13.67 0.66 13.34 1.32 13 2 C13.66 2.33 14.32 2.66 15 3 C14 6 14 6 12 7 C9.94140625 7.203125 9.94140625 7.203125 7.5625 7.25 C6.38880859 7.28867187 6.38880859 7.28867187 5.19140625 7.328125 C3 7 3 7 1.21484375 5.734375 C0 4 0 4 0 0 Z " fill="#F47930" transform="translate(295,278)"/>
<path d="M0 0 C0 0.33 0 0.66 0 1 C-3.3 1.66 -6.6 2.32 -10 3 C-9.67 10.92 -9.34 18.84 -9 27 C-5.7 27.66 -2.4 28.32 1 29 C1 29.33 1 29.66 1 30 C-4.45353909 30.2772986 -7.48890479 30.4246318 -12 27 C-12.63110352 24.50390625 -12.63110352 24.50390625 -12.62890625 21.5625 C-12.63083984 20.50289062 -12.63277344 19.44328125 -12.63476562 18.3515625 C-12.61091797 17.24554688 -12.58707031 16.13953125 -12.5625 15 C-12.57345703 13.89398438 -12.58441406 12.78796875 -12.59570312 11.6484375 C-12.5398416 5.52601395 -12.5398416 5.52601395 -12 3 C-8.08295084 -0.7520996 -5.18510088 -0.25925504 0 0 Z " fill="#C16D3E" transform="translate(294,180)"/>
<path d="M0 0 C0 0.66 0 1.32 0 2 C-0.99 2 -1.98 2 -3 2 C-3.2475 2.556875 -3.495 3.11375 -3.75 3.6875 C-5.22924818 6.42410913 -6.93467439 8.67650869 -9 11 C-9.66 11 -10.32 11 -11 11 C-10.93093078 15.32388583 -10.84287346 19.64685148 -10.73754883 23.9699707 C-10.70438741 25.43926422 -10.67632822 26.90868244 -10.65356445 28.37817383 C-10.61985481 30.49614368 -10.56753567 32.61297995 -10.51171875 34.73046875 C-10.48553467 36.00301514 -10.45935059 37.27556152 -10.43237305 38.58666992 C-9.97286976 42.2141772 -9.10098721 44.05475402 -7 47 C-6.34 47.99 -5.68 48.98 -5 50 C-8.8843201 48.5266372 -10.2099444 46.70752398 -12 43 C-12.5645439 38.31362918 -12.51521684 33.62376918 -12.50097656 28.90820312 C-12.50000557 26.63802674 -12.54162689 24.37125027 -12.5859375 22.1015625 C-12.68591308 9.97757877 -12.68591308 9.97757877 -9.63671875 5.58203125 C-3.93645991 0 -3.93645991 0 0 0 Z " fill="#4D6984" transform="translate(280,169)"/>
<path d="M0 0 C0.33 0 0.66 0 1 0 C1 2.97 1 5.94 1 9 C1.64549805 8.84329834 2.29099609 8.68659668 2.95605469 8.52514648 C5.88516779 7.81972631 8.817449 7.12848233 11.75 6.4375 C13.27367187 6.0672168 13.27367187 6.0672168 14.828125 5.68945312 C15.8078125 5.46064453 16.7875 5.23183594 17.796875 4.99609375 C18.69760742 4.78138428 19.59833984 4.5666748 20.52636719 4.34545898 C23 4 23 4 27 5 C24.03 5.99 21.06 6.98 18 8 C18.66 8.66 19.32 9.32 20 10 C13.30324864 11.03026944 6.7685324 11.10152799 0 11 C0 7.37 0 3.74 0 0 Z " fill="#F9BF9D" transform="translate(382,284)"/>
<path d="M0 0 C0.33 0 0.66 0 1 0 C1.24351112 6.94006687 0.48830484 13.5163675 -0.4921875 20.38671875 C-0.91019637 23.36101262 -1.26323528 26.32467962 -1.5625 29.3125 C-2 33 -2 33 -3 35 C-3.38787256 37.20266316 -3.73709495 39.41224568 -4.0625 41.625 C-4.23910156 42.81351562 -4.41570312 44.00203125 -4.59765625 45.2265625 C-4.73042969 46.14179688 -4.86320312 47.05703125 -5 48 C-5.33 48 -5.66 48 -6 48 C-5.67 42.39 -5.34 36.78 -5 31 C-4.34 31 -3.68 31 -3 31 C-3.02320313 30.37996094 -3.04640625 29.75992187 -3.0703125 29.12109375 C-3.27056098 19.29461483 -2.02803481 9.61032713 0 0 Z " fill="#FAC8AB" transform="translate(368,235)"/>
<path d="M0 0 C0.66 0.33 1.32 0.66 2 1 C1.67 1.66 1.34 2.32 1 3 C3.31 3 5.62 3 8 3 C4.65836994 5.22775337 1.45287175 6.12738864 -2.375 7.125 C-3.365 7.39763672 -3.365 7.39763672 -4.375 7.67578125 C-7.99530961 8.63494694 -11.25410979 9.21694345 -15 9 C-15 8.34 -15 7.68 -15 7 C-11.91190305 5.23537317 -10.76687864 5 -7 5 C-7 4.34 -7 3.68 -7 3 C-4.69631264 1.93347808 -2.35981813 0.93578995 0 0 Z " fill="#FDECE3" transform="translate(411,246)"/>
<path d="M0 0 C0.33 0 0.66 0 1 0 C1 8.58 1 17.16 1 26 C0.67 25.34 0.34 24.68 0 24 C-0.66 24 -1.32 24 -2 24 C-2 17.07 -2 10.14 -2 3 C-1.34 3 -0.68 3 0 3 C0 2.01 0 1.02 0 0 Z " fill="#AE6C4A" transform="translate(267,182)"/>
<path d="M0 0 C1.12377697 3.30435084 0.89554742 5.0506862 -0.4375 8.25 C-0.72496094 8.95640625 -1.01242187 9.6628125 -1.30859375 10.390625 C-1.53675781 10.92171875 -1.76492188 11.4528125 -2 12 C-2.66 12 -3.32 12 -4 12 C-4.33 15.3 -4.66 18.6 -5 22 C-5.66 22 -6.32 22 -7 22 C-7.12375 22.639375 -7.2475 23.27875 -7.375 23.9375 C-8.1979822 27.97011276 -9.09885975 31.98423907 -10 36 C-10.66 36 -11.32 36 -12 36 C-12.33 37.32 -12.66 38.64 -13 40 C-14.57156655 36.8568669 -13.11705576 34.634536 -12.0625 31.375 C-11.68222656 30.18648437 -11.30195313 28.99796875 -10.91015625 27.7734375 C-10.60980469 26.85820312 -10.30945313 25.94296875 -10 25 C-9.34 25 -8.68 25 -8 25 C-7.896875 24.01 -7.79375 23.02 -7.6875 22 C-6.90552635 16.50384234 -5.0743798 11.6115697 -2 7 C-1.29187186 4.67891331 -0.61975848 2.34622853 0 0 Z " fill="#9F6B53" transform="translate(360,173)"/>
<path d="M0 0 C0.33 0 0.66 0 1 0 C1 2.31 1 4.62 1 7 C8.26 7 15.52 7 23 7 C23 5.35 23 3.7 23 2 C23.33 2 23.66 2 24 2 C24 4.31 24 6.62 24 9 C15.75 9 7.5 9 -1 9 C-0.67 6.03 -0.34 3.06 0 0 Z " fill="#F8B48C" transform="translate(59,294)"/>
<path d="M0 0 C0 0.66 0 1.32 0 2 C-0.86625 2.3403125 -0.86625 2.3403125 -1.75 2.6875 C-4.55338976 4.32281069 -6.00442154 6.47226728 -8 9 C-8.66 9 -9.32 9 -10 9 C-10.02483806 13.3050091 -10.04292512 17.60997951 -10.05493164 21.91503906 C-10.05994045 23.37761157 -10.06674938 24.84017911 -10.07543945 26.30273438 C-10.08765698 28.41277291 -10.09326295 30.52274487 -10.09765625 32.6328125 C-10.10289307 33.90012207 -10.10812988 35.16743164 -10.11352539 36.47314453 C-10.00813747 39.747196 -9.62450226 42.78889152 -9 46 C-11 45 -11 45 -11.61450195 43.34741211 C-12.41453685 38.47576198 -12.18590355 33.50763744 -12.18530273 28.58276367 C-12.18748908 26.57253845 -12.20566679 24.56286264 -12.22460938 22.55273438 C-12.22654297 21.27849609 -12.22847656 20.00425781 -12.23046875 18.69140625 C-12.23457764 17.52810791 -12.23868652 16.36480957 -12.24291992 15.16625977 C-11.91764192 10.9265307 -11.02569978 8.10476414 -8.125 4.98046875 C-7.42375 4.38878906 -6.7225 3.79710937 -6 3.1875 C-5.29875 2.58292969 -4.5975 1.97835937 -3.875 1.35546875 C-2 0 -2 0 0 0 Z " fill="#4B6886" transform="translate(232,169)"/>
<path d="M0 0 C0.99 0 1.98 0 3 0 C3.33 1.32 3.66 2.64 4 4 C3.01 4.495 3.01 4.495 2 5 C1.98018066 5.6391333 1.96036133 6.2782666 1.93994141 6.93676758 C1.84336503 9.89568633 1.73423609 12.85402259 1.625 15.8125 C1.5940625 16.81732422 1.563125 17.82214844 1.53125 18.85742188 C1.26627183 25.72477283 0.41290759 32.27499153 -1 39 C-1.33 39 -1.66 39 -2 39 C-2.02691685 36.54159395 -2.04679802 34.08348118 -2.0625 31.625 C-2.07087891 30.92632812 -2.07925781 30.22765625 -2.08789062 29.5078125 C-2.11328125 24.2265625 -2.11328125 24.2265625 -1 22 C-0.84777027 20.33434251 -0.75082785 18.66343504 -0.68359375 16.9921875 C-0.64169922 16.00605469 -0.59980469 15.01992188 -0.55664062 14.00390625 C-0.51732422 12.97136719 -0.47800781 11.93882812 -0.4375 10.875 C-0.39431641 9.83472656 -0.35113281 8.79445313 -0.30664062 7.72265625 C-0.2003712 5.14857472 -0.09833417 2.57439492 0 0 Z " fill="#F9C2A1" transform="translate(85,257)"/>
<path d="M0 0 C0.33 0 0.66 0 1 0 C1.06058594 0.96421875 1.12117188 1.9284375 1.18359375 2.921875 C1.26738281 4.18515625 1.35117187 5.4484375 1.4375 6.75 C1.55931641 8.62945312 1.55931641 8.62945312 1.68359375 10.546875 C1.86574735 13.76330464 1.86574735 13.76330464 2.54101562 15.8359375 C3.14503416 18.68382061 2.90178529 21.17857656 2.66015625 24.078125 C2.56669922 25.23828125 2.47324219 26.3984375 2.37695312 27.59375 C2.27318359 28.8003125 2.16941406 30.006875 2.0625 31.25 C1.96259766 32.47203125 1.86269531 33.6940625 1.75976562 34.953125 C1.51234642 37.96928289 1.25887061 40.98480694 1 44 C0.67 44 0.34 44 0 44 C0 35.75 0 27.5 0 19 C-0.99 19.66 -1.98 20.32 -3 21 C-2.52433594 19.75863281 -2.52433594 19.75863281 -2.0390625 18.4921875 C-0.90524027 14.68152181 -0.55838311 11.06773688 -0.375 7.125 C-0.33632813 6.43664062 -0.29765625 5.74828125 -0.2578125 5.0390625 C-0.16451834 3.35976754 -0.08121762 1.67992233 0 0 Z " fill="#F7A371" transform="translate(329,246)"/>
<path d="M0 0 C5.28 0 10.56 0 16 0 C16 0.33 16 0.66 16 1 C11.38 1 6.76 1 2 1 C2.474375 2.4025 2.94875 3.805 3.4375 5.25 C4.41751463 8.14743457 5.29666462 11.02277453 6 14 C5.34 14 4.68 14 4 14 C3.67 14.66 3.34 15.32 3 16 C2.7525 14.72125 2.505 13.4425 2.25 12.125 C1.48009414 8.73252682 1.48009414 8.73252682 -1.125 6.5 C-1.74375 6.335 -2.3625 6.17 -3 6 C-2.34 5.67 -1.68 5.34 -1 5 C-0.67 3.35 -0.34 1.7 0 0 Z " fill="#BD6D41" transform="translate(309,167)"/>
<path d="M0 0 C5.61840415 8.42760623 0.73382352 22.61877633 -1 32 C-1.33 32 -1.66 32 -2 32 C-2.02692484 29.70839681 -2.04636124 27.41670454 -2.0625 25.125 C-2.07410156 23.84882813 -2.08570313 22.57265625 -2.09765625 21.2578125 C-2 18 -2 18 -1 16 C-0.7677354 13.28737884 -0.58063765 10.59226874 -0.4375 7.875 C-0.39431641 7.12089844 -0.35113281 6.36679688 -0.30664062 5.58984375 C-0.2005168 3.72678112 -0.09974999 1.86341476 0 0 Z " fill="#F26816" transform="translate(213,249)"/>
<path d="M0 0 C1.485 0.99 1.485 0.99 3 2 C3.24869641 4.91330078 3.32634278 7.59420295 3.25 10.5 C3.24484375 11.28503906 3.2396875 12.07007813 3.234375 12.87890625 C3.15462412 18.69075176 3.15462412 18.69075176 2 21 C1.34 21 0.68 21 0 21 C0 23.64 0 26.28 0 29 C-0.33 29 -0.66 29 -1 29 C-1.02705729 27.22925083 -1.04642195 25.45838289 -1.0625 23.6875 C-1.07410156 22.70136719 -1.08570313 21.71523438 -1.09765625 20.69921875 C-1 18 -1 18 0 15 C0.07029121 12.42734182 0.09370832 9.88358569 0.0625 7.3125 C0.05573242 6.2596582 0.05573242 6.2596582 0.04882812 5.18554688 C0.03706927 3.45699462 0.01913454 1.72848635 0 0 Z " fill="#F69E6A" transform="translate(210,246)"/>
<path d="M0 0 C1.70608488 3.41216976 0.01310809 7.10209152 -0.8125 10.6875 C-2.67651462 19.09722171 -4.02777493 27.44186086 -5 36 C-5.33 36 -5.66 36 -6 36 C-6.05447822 33.47886908 -6.09389852 30.9589415 -6.125 28.4375 C-6.14175781 27.73302734 -6.15851563 27.02855469 -6.17578125 26.30273438 C-6.21994347 21.51113356 -5.4874907 17.60109132 -4 13 C-3.20931689 9.82970122 -2.44447462 6.65412718 -1.68359375 3.4765625 C-1 1 -1 1 0 0 Z " fill="#F7A97C" transform="translate(278,249)"/>
<path d="M0 0 C-3.63423209 2.32590854 -6.77088331 2.16265833 -11 2 C-11 2.66 -11 3.32 -11 4 C-13.97 4 -16.94 4 -20 4 C-20 3.67 -20 3.34 -20 3 C-18.35 2.67 -16.7 2.34 -15 2 C-17.31 1.67 -19.62 1.34 -22 1 C-22 0.67 -22 0.34 -22 0 C-19.64628886 -0.1968999 -17.2925305 -0.38270974 -14.9375 -0.5625 C-13.62652344 -0.66691406 -12.31554687 -0.77132813 -10.96484375 -0.87890625 C-7.07674103 -0.99765619 -3.80889777 -0.66866216 0 0 Z " fill="#F69760" transform="translate(453,299)"/>
<path d="M0 0 C2.27795022 2.27795022 3.05219877 3.93787293 4 7 C3.625 9.3125 3.625 9.3125 3 11 C3 10.01 3 9.02 3 8 C2.34 8 1.68 8 1 8 C1.01160156 8.92683594 1.02320313 9.85367188 1.03515625 10.80859375 C1.04417969 12.00613281 1.05320313 13.20367187 1.0625 14.4375 C1.07410156 15.63246094 1.08570313 16.82742187 1.09765625 18.05859375 C1 21 1 21 0 22 C-2.53049402 22.07313567 -5.03304837 22.09247527 -7.5625 22.0625 C-8.27341797 22.05798828 -8.98433594 22.05347656 -9.71679688 22.04882812 C-11.47790013 22.03700864 -13.23896036 22.01907263 -15 22 C-15 21.67 -15 21.34 -15 21 C-10.38 20.67 -5.76 20.34 -1 20 C-0.67 13.4 -0.34 6.8 0 0 Z " fill="#D76E31" transform="translate(180,202)"/>
<path d="M0 0 C7.92 0.33 15.84 0.66 24 1 C24 1.33 24 1.66 24 2 C17.565 2.495 17.565 2.495 11 3 C12.32 3.66 13.64 4.32 15 5 C9.47322267 5.19392201 5.24385089 4.7479503 0 3 C0 2.01 0 1.02 0 0 Z " fill="#F7A26F" transform="translate(382,295)"/>
<path d="M0 0 C-2.64 0.33 -5.28 0.66 -8 1 C-8 0.34 -8 -0.32 -8 -1 C-9.53720703 -0.7834375 -9.53720703 -0.7834375 -11.10546875 -0.5625 C-12.46612154 -0.37482375 -13.82679999 -0.18733358 -15.1875 0 C-15.86103516 0.09539062 -16.53457031 0.19078125 -17.22851562 0.2890625 C-20.84664577 0.78324613 -24.34796401 1.11346131 -28 1 C-24.28194824 -1.47870117 -20.89113111 -1.71865582 -16.5625 -2.1875 C-15.79873047 -2.28224609 -15.03496094 -2.37699219 -14.24804688 -2.47460938 C-8.65660511 -3.11210186 -5.03078298 -2.69506231 0 0 Z " fill="#F8AC80" transform="translate(438,292)"/>
<path d="M0 0 C-0.10959718 3.29237055 -0.24028931 6.58356887 -0.375 9.875 C-0.4059375 10.81214844 -0.436875 11.74929688 -0.46875 12.71484375 C-0.50742188 13.61074219 -0.54609375 14.50664062 -0.5859375 15.4296875 C-0.6173584 16.25710449 -0.6487793 17.08452148 -0.68115234 17.93701172 C-1 20 -1 20 -3 22 C-2.67 16.39 -2.34 10.78 -2 5 C-3.98 5.99 -3.98 5.99 -6 7 C-5.1875 4.0625 -5.1875 4.0625 -4 1 C-1 0 -1 0 0 0 Z " fill="#F58F52" transform="translate(124,269)"/>
<path d="M0 0 C0.66 0 1.32 0 2 0 C2.22331199 1.58129029 2.42804644 3.16521089 2.625 4.75 C2.74101563 5.63171875 2.85703125 6.5134375 2.9765625 7.421875 C3.00207817 10.22859878 2.44843844 11.63384866 1 14 C0.34 14 -0.32 14 -1 14 C-1.02685938 11.85423363 -1.04633088 9.70837355 -1.0625 7.5625 C-1.07410156 6.36753906 -1.08570312 5.17257812 -1.09765625 3.94140625 C-1 1 -1 1 0 0 Z " fill="#F47C35" transform="translate(87,261)"/>
<path d="M0 0 C2 1 2 1 3.125 3.125 C4.15945114 6.52391089 4.1385722 9.46640886 4 13 C4.66 13 5.32 13 6 13 C6 11.02 6 9.04 6 7 C6.66 6.67 7.32 6.34 8 6 C7.85892253 7.45880109 7.71197585 8.91703551 7.5625 10.375 C7.48128906 11.18710938 7.40007812 11.99921875 7.31640625 12.8359375 C7 15 7 15 6 17 C5.34 17 4.68 17 4 17 C3.67 14.36 3.34 11.72 3 9 C2.34 9 1.68 9 1 9 C0.67 6.03 0.34 3.06 0 0 Z " fill="#876B62" transform="translate(331,187)"/>
<path d="M0 0 C0.66 0 1.32 0 2 0 C2.13277344 1.20398438 2.26554687 2.40796875 2.40234375 3.6484375 C2.5805302 5.22398085 2.7589265 6.79950047 2.9375 8.375 C3.02451172 9.1690625 3.11152344 9.963125 3.20117188 10.78125 C3.6038935 15.02255001 3.6038935 15.02255001 5 19 C5.13415472 21.6723621 5.04318541 24.32250488 5 27 C4.67 27 4.34 27 4 27 C2.11057938 21.21265699 1.40653348 15.61413938 0.875 9.5625 C0.78863281 8.64017578 0.70226562 7.71785156 0.61328125 6.76757812 C0.4029346 4.51219459 0.19865598 2.25643814 0 0 Z " fill="#F8B288" transform="translate(451,247)"/>
<path d="M0 0 C1.32 0.33 2.64 0.66 4 1 C4.33 3.64 4.66 6.28 5 9 C4.34 8.01 3.68 7.02 3 6 C2.67 11.94 2.34 17.88 2 24 C1.67 24 1.34 24 1 24 C0.67 16.08 0.34 8.16 0 0 Z " fill="#686974" transform="translate(178,198)"/>
<path d="M0 0 C1.88989379 4.87070187 2.4014447 9.22391338 2.625 14.375 C2.66367187 15.11105469 2.70234375 15.84710938 2.7421875 16.60546875 C2.83557998 18.40327406 2.9188371 20.20160108 3 22 C2.67 22 2.34 22 2 22 C1.87882812 21.05898437 1.75765625 20.11796875 1.6328125 19.1484375 C1.46523438 17.90320313 1.29765625 16.65796875 1.125 15.375 C0.88136719 13.53035156 0.88136719 13.53035156 0.6328125 11.6484375 C0.04516311 8.26038483 -0.81988122 5.22301349 -2 2 C-2.99 2.99 -3.98 3.98 -5 5 C-5.66 4.67 -6.32 4.34 -7 4 C-3.375 0 -3.375 0 0 0 Z " fill="#F9B790" transform="translate(448,225)"/>
<path d="M0 0 C0.77923828 0.01353516 1.55847656 0.02707031 2.36132812 0.04101562 C4.26202404 0.07599776 6.16235834 0.12979041 8.0625 0.1875 C8.0625 0.5175 8.0625 0.8475 8.0625 1.1875 C7.09570312 1.30867187 6.12890625 1.42984375 5.1328125 1.5546875 C-2.29079954 2.51020192 -9.62274956 3.56964931 -16.9375 5.1875 C-15.58988331 2.49226662 -13.73451718 1.89945957 -11.02294922 0.79833984 C-7.36502677 -0.27308628 -3.77974599 -0.12631542 0 0 Z " fill="#F9BA95" transform="translate(306.9375,232.8125)"/>
<path d="M0 0 C1 2 1 2 0.1875 5 C-1 8 -1 8 -3 10 C-3.67651207 12.19704511 -3.67651207 12.19704511 -4.125 14.625 C-4.29257813 15.44226563 -4.46015625 16.25953125 -4.6328125 17.1015625 C-4.75398437 17.72804687 -4.87515625 18.35453125 -5 19 C-6.32 18.34 -7.64 17.68 -9 17 C-8.67 16.34 -8.34 15.68 -8 15 C-7.34 15.33 -6.68 15.66 -6 16 C-5.9071875 14.5459375 -5.9071875 14.5459375 -5.8125 13.0625 C-5.14374201 8.11774397 -2.57409304 4.18883776 0 0 Z " fill="#5E697A" transform="translate(198,176)"/>
<path d="M0 0 C0 0.66 0 1.32 0 2 C-0.99 2 -1.98 2 -3 2 C-3.2475 2.556875 -3.495 3.11375 -3.75 3.6875 C-5.22924818 6.42410913 -6.93467439 8.67650869 -9 11 C-9.66 11 -10.32 11 -11 11 C-11.33 11.99 -11.66 12.98 -12 14 C-11.46608326 9.46170772 -9.80333268 6.5820362 -7 3 C-2.8 0 -2.8 0 0 0 Z " fill="#3A6790" transform="translate(280,169)"/>
<path d="M0 0 C0.99 0 1.98 0 3 0 C3.33 1.32 3.66 2.64 4 4 C3.01 4.495 3.01 4.495 2 5 C1.68758545 7.71446979 1.48663408 10.33909361 1.375 13.0625 C1.33632812 13.82111328 1.29765625 14.57972656 1.2578125 15.36132812 C1.16326438 17.24047195 1.08053244 19.12020336 1 21 C0.67 21 0.34 21 0 21 C0 14.07 0 7.14 0 0 Z " fill="#FCDDCB" transform="translate(85,257)"/>
<path d="M0 0 C0 3 0 3 -2.0625 5.3125 C-5 7 -5 7 -8.625 6.3125 C-9.73875 5.879375 -10.8525 5.44625 -12 5 C-12.99 4.67 -13.98 4.34 -15 4 C-14.67 3.34 -14.34 2.68 -14 2 C-13.01 2.33 -12.02 2.66 -11 3 C-5.67543587 3.59880564 -5.67543587 3.59880564 -1 1.5 C-0.67 1.005 -0.34 0.51 0 0 Z " fill="#396891" transform="translate(298,206)"/>
<path d="M0 0 C4.29 0.33 8.58 0.66 13 1 C12.01 1.66 11.02 2.32 10 3 C10.99 3.66 11.98 4.32 13 5 C8.428721 4.45144652 4.32564205 3.58255197 0 2 C0 1.34 0 0.68 0 0 Z " fill="#FAC1A0" transform="translate(387,301)"/>
<path d="M0 0 C0 0.66 0 1.32 0 2 C-6.435 2.495 -6.435 2.495 -13 3 C-12 1 -12 1 -10.4375 0.375 C-6.93601819 -0.16368951 -3.54193167 -0.05903219 0 0 Z " fill="#F3762D" transform="translate(430,291)"/>
<path d="M0 0 C0.66 0.33 1.32 0.66 2 1 C0.92492371 2.29854721 -0.16043736 3.58858361 -1.25 4.875 C-1.85328125 5.59429687 -2.4565625 6.31359375 -3.078125 7.0546875 C-4.97087634 8.97052118 -6.53657727 9.96449045 -9 11 C-7.59155282 7.78475695 -5.89655214 5.67816132 -3.375 3.25 C-2.74335938 2.63640625 -2.11171875 2.0228125 -1.4609375 1.390625 C-0.73777344 0.70226562 -0.73777344 0.70226562 0 0 Z " fill="#FBD5BF" transform="translate(168,238)"/>
<path d="M0 0 C0.66 0.33 1.32 0.66 2 1 C1.67 1.66 1.34 2.32 1 3 C3.31 3 5.62 3 8 3 C4.39948847 5.40034102 1.03855465 7.32187705 -3.375 6.625 C-3.91125 6.41875 -4.4475 6.2125 -5 6 C-4.01 5.67 -3.02 5.34 -2 5 C-1.67 4.34 -1.34 3.68 -1 3 C-1.66 2.67 -2.32 2.34 -3 2 C-2.01 1.34 -1.02 0.68 0 0 Z " fill="#FBD5BE" transform="translate(411,246)"/>
<path d="M0 0 C1.53445094 3.06890187 0.54984289 5.70094266 0 9 C-0.66 9 -1.32 9 -2 9 C-2.33 10.98 -2.66 12.96 -3 15 C-4.2288865 11.48538462 -3.75329849 9.31643613 -2.625 5.8125 C-2.34914063 4.93207031 -2.07328125 4.05164063 -1.7890625 3.14453125 C-1 1 -1 1 0 0 Z " fill="#7E6A67" transform="translate(343,178)"/>
<path d="M0 0 C0.33 0 0.66 0 1 0 C1.21755666 5.4389165 1.10428384 9.87080814 -1 15 C-1.66 15 -2.32 15 -3 15 C-2.690625 14.01 -2.38125 13.02 -2.0625 12 C-0.91566793 8.02268878 -0.43287644 4.11232621 0 0 Z " fill="#F79E6A" transform="translate(208,275)"/>
<path d="M0 0 C0.33 0 0.66 0 1 0 C1 1.65 1 3.3 1 5 C1.66 5 2.32 5 3 5 C3.33 7.97 3.66 10.94 4 14 C2 13 2 13 0.875 10.9375 C-0.2583306 7.13274727 -0.13434296 3.9631172 0 0 Z " fill="#F79E69" transform="translate(91,274)"/>
<path d="M0 0 C7.38461538 -0.36923077 7.38461538 -0.36923077 10.5 1.5 C10.995 1.995 11.49 2.49 12 3 C3.42857143 3.28571429 3.42857143 3.28571429 0 1 C0 0.67 0 0.34 0 0 Z " fill="#F8B58D" transform="translate(385,297)"/>
<path d="M0 0 C1.8125 0.75 1.8125 0.75 2.8125 2.75 C-1.6425 3.245 -1.6425 3.245 -6.1875 3.75 C-6.1875 3.09 -6.1875 2.43 -6.1875 1.75 C-3.9127187 0.36888278 -2.68578639 -0.30694702 0 0 Z " fill="#FBCFB5" transform="translate(402.1875,251.25)"/>
<path d="M0 0 C0.33 0 0.66 0 1 0 C1.27429625 5.39449293 1.36055646 8.51925805 -2 13 C-3.45047396 10.09905209 -2.45356803 8.44027404 -1.5625 5.375 C-1.27503906 4.37210937 -0.98757813 3.36921875 -0.69140625 2.3359375 C-0.46324219 1.56507813 -0.23507812 0.79421875 0 0 Z " fill="#F8A97B" transform="translate(381,298)"/>
<path d="M0 0 C0.66 0 1.32 0 2 0 C1.84660156 0.55171875 1.69320312 1.1034375 1.53515625 1.671875 C0.95329729 4.20317383 0.67564555 6.66441972 0.4375 9.25 C0.35371094 10.14203125 0.26992187 11.0340625 0.18359375 11.953125 C0.12300781 12.62859375 0.06242187 13.3040625 0 14 C-0.33 14 -0.66 14 -1 14 C-1.02685938 11.85423363 -1.04633088 9.70837355 -1.0625 7.5625 C-1.07410156 6.36753906 -1.08570312 5.17257812 -1.09765625 3.94140625 C-1 1 -1 1 0 0 Z " fill="#F7A473" transform="translate(87,261)"/>
<path d="M0 0 C0.66 0.33 1.32 0.66 2 1 C0.875 2.9375 0.875 2.9375 -1 5 C-4.1875 5.75 -4.1875 5.75 -7 6 C-4.74259377 3.66475218 -2.7194239 1.81294927 0 0 Z " fill="#F58F54" transform="translate(321,294)"/>
<path d="M0 0 C0.99 0 1.98 0 3 0 C3 0.66 3 1.32 3 2 C-1.47058824 6 -1.47058824 6 -4 6 C-2.84826645 3.53199953 -1.95216435 1.95216435 0 0 Z " fill="#FCDBC8" transform="translate(337,306)"/>
<path d="M0 0 C0.66 0.33 1.32 0.66 2 1 C-0.31 2.65 -2.62 4.3 -5 6 C-6.32 5.34 -7.64 4.68 -9 4 C-7.54618103 3.30300448 -6.08677047 2.61766134 -4.625 1.9375 C-3.40683594 1.36322266 -3.40683594 1.36322266 -2.1640625 0.77734375 C-1.44992187 0.52082031 -0.73578125 0.26429688 0 0 Z " fill="#F47C36" transform="translate(434,243)"/>
<path d="M0 0 C2.64 0 5.28 0 8 0 C8 0.33 8 0.66 8 1 C7.05125 1.103125 6.1025 1.20625 5.125 1.3125 C1.70892499 1.68539295 1.70892499 1.68539295 0 5 C-0.66 5 -1.32 5 -2 5 C-1.34 3.35 -0.68 1.7 0 0 Z " fill="#F3752B" transform="translate(300,253)"/>
<path d="M0 0 C2.0343459 1.41519715 2.90410393 2.54982123 3.421875 4.98046875 C3.66273952 6.98176954 3.83532741 8.9909944 4 11 C0 5 0 5 0 0 Z " fill="#F9B994" transform="translate(98,223)"/>
</svg>
